<?xml version="1.0" encoding="utf-8"?>
<!-- Generator: Adobe Illustrator 23.0.0, SVG Export Plug-In . SVG Version: 6.00 Build 0)  -->
<svg version="1.1" id="illust" xmlns="http://www.w3.org/2000/svg" xmlns:xlink="http://www.w3.org/1999/xlink" x="0px" y="0px"
	 viewBox="0 0 605 60" style="enable-background:new 0 0 605 60;" xml:space="preserve">
<style type="text/css">
	.st0{fill:#00002D;}
</style>
<path class="st0" d="M28.4,32.7c-0.1-2-0.3-4.2-0.3-6.3C28,22.2,27.6,18,27,13.8l-0.1-0.4c-0.1-1.1-0.3-2.1-2.1-2.2
	s-3.9-0.1-5.9-0.1h-0.3c-0.9,0-1.9-0.1-3-0.1c-2.2-0.3-4.5-0.2-6.7,0.2H8.3c-0.3,0-0.5,0.2-0.6,0.4c-2,7.7-1.5,15.9-1.1,23.9v0.2
	c0.1,2,0.2,4.1,0.2,6.1c0,1.8,0.1,3.8,0.2,5.6c0,0.3,0,0.7,0,1.1c-0.1,1-0.1,2,0.2,2.9c0.5,1.1,2,0.9,2.9,0.7
	c0.3-0.1,0.5-0.1,0.8-0.1c1.6,0,3.2,0.1,4.8,0.2s3,0.2,4.5,0.2c1.1,0,2.2-0.1,3.4-0.2H24c1-0.1,1.9-0.3,2.9-0.7
	c1.6-0.8,1.7-3.2,1.7-4.9c0-0.4,0-0.8,0.1-1C28.8,41.4,28.7,37,28.4,32.7z M10.4,21.1c-0.1-0.4-0.1-0.8,0-1.2c0-0.2,0-0.3,0-0.4
	v-0.2c0-0.6,0-1.2,0-1.8c0-0.1,0-0.3-0.1-0.5c-0.1-0.3-0.1-0.7-0.1-1l0,0l0.1-0.3l0.1-0.1c0.6-0.2,1.2-0.3,1.8-0.1h0.3H13
	c0.5,0,1,0,1.4,0.2c0.5,0.2,0.5,0.6,0.4,0.9v0.1c0,0.8,0,1.8,0,2.9c0,0.1,0,0.3,0,0.4c0.1,0.5,0.1,1.1-0.1,1.5
	c-0.1,0.2-0.3,0.3-0.5,0.3h-0.5c-0.4,0-0.8,0-1.3-0.1H12C11.4,21.6,10.6,21.6,10.4,21.1z M15.2,31.8c-0.8,0.6-1.7,0.8-2.6,0.8
	c-0.2,0-0.5,0-0.7-0.1c-1-0.2-1-1.6-1-2.2c0-0.4,0-0.9-0.1-1.3c-0.1-0.5-0.1-1.1-0.1-1.6c0-0.1,0-0.1,0.1-0.1l0.4-0.2h0.1h2.2
	c0.1,0,0.4,0,0.6-0.1c0.4-0.1,0.9-0.2,1.4,0c0.3,0.2,0.5,0.5,0.5,0.8C16.2,29,15.9,30.5,15.2,31.8z M18.2,20.9
	c-0.1-0.3-0.1-0.7-0.1-1c0-0.1,0-0.3,0-0.4C18,18.8,18,18,18,17.2c0-0.4,0.2-1.7,0.2-1.8s0.1-0.1,0.1-0.1c0.1,0,0.1,0,0.2,0
	c0.1,0.1,0.6,0.1,1,0.1c0.2,0,0.4,0,0.6,0h0.7c0.4,0,0.7,0,1.1,0.1c1.1,0.2,1.1,2.3,1,3.4v0.3c0,0.1,0,0.2,0,0.3
	c0,0.6,0.1,1.5-0.7,1.8c-0.3,0.1-0.7,0.1-1,0.1s-0.6,0-0.9,0h-0.5h-0.3C19.1,21.3,18.5,21.3,18.2,20.9L18.2,20.9z M24,30.7
	c0,0.4-0.2,0.7-0.5,1c-0.3,0.2-0.7,0.4-1.1,0.3c-0.3,0-0.5,0-0.8,0s-0.5,0-0.8,0h-0.4c-0.9,0.1-1.4,0.1-1.6-0.1s-0.2-0.6-0.2-0.9
	v-0.2c0-0.3,0-0.7,0-1.1c-0.1-1,0-1.9,0.1-2.9v-0.1l0.3-0.3c0.1-0.1,0.1-0.1,0.2-0.1s0.1,0.1,0.1,0.1c0.2,0.1,0.9,0.1,3.3-0.5
	c0.3-0.1,0.4-0.1,0.5-0.1s0.2,0,0.2,0.1C23.9,27.6,24.1,29.2,24,30.7z"/>
<path class="st0" d="M94,49.4c0-0.2,0-0.3-0.1-0.4c-0.1-1.9-0.1-3.9,0-5.8c0-1.1,0.1-2.3,0.1-3.4c0-0.1,0-0.2,0-0.4
	c0.1-2.2,0-3.8-0.6-4.3l0,0c-0.2-0.7-0.4-1.3-0.8-1.9c-0.6-1.1-1.4-2.1-2.2-3l-0.8-0.9c-0.5-0.6-1-1.2-1.5-1.8s-1-1.1-1.5-1.7
	c-0.3-0.4-0.6-0.7-0.8-1.1C85.4,24,85,23.5,84.5,23c-0.2-0.2-0.4-0.2-0.6-0.2c-0.1,0-0.2,0.1-0.2,0.2h-0.1c-0.1,0.1-0.2,0.3-0.2,0.5
	l0,0c-0.4,0.7-0.8,1.3-1.3,1.9c-0.3,0.3-0.5,0.6-0.8,0.9c-0.7,1-1.4,2-2.1,3.1c-0.4,0.6-0.8,1.2-1.1,1.7c-0.2,0.4-0.5,0.8-0.6,1.2
	c-0.1,0.3-0.3,0.6-0.5,0.9c-0.1,0.1-0.2,0.3-0.3,0.4c-0.2,0.2-0.4,0.5-0.6,0.8c-0.2,0.4-0.2,0.8,0,1.2c-0.4,0.8-0.5,1.7-0.4,2.7
	c0,0.2,0,0.4,0,0.6c0,0.4-0.1,0.8-0.1,1.2c-0.1,1.4-0.1,2.9-0.1,4.3c0.1,1.3,0.1,2.7,0.1,4.1c0,1,0,2,0.1,3c0,0.3,0.3,0.5,0.6,0.5
	c1.2,0.1,2.4,0.1,3.6,0.1c1.6,0,3.1,0,4.7-0.1c1.9,0,3.8-0.1,5.7-0.1l0.8,0.1c0.7,0.1,1.5,0.1,2.2-0.1c0.1,0,0.1,0,0.2,0
	c0.3,0,0.5-0.3,0.6-0.5v-0.1C94.1,50.6,94.1,50,94,49.4z M82.1,43.9c-0.7,0.3-1.4,0.4-2.2,0.3c-0.5,0-0.9,0-1,0s-0.2-0.1-0.2-0.2
	l-0.1-3.8c0-0.1,0.1-0.2,0.2-0.2c0.5,0,0.9,0,1.4,0.1c0.6,0.1,1.1,0.1,1.7,0c0.1,0,0.2,0,0.2,0.1C82.4,40.8,82.7,43.3,82.1,43.9z
	 M90,43.4c-0.1,0.6-0.7,0.7-1.2,0.7c-0.2,0-0.4,0-0.6,0h-0.5h-0.4c-0.3,0-0.6,0-0.9,0h-0.3c-0.4,0-0.4-0.2-0.5-0.5v-0.3
	c0-0.6,0-1.1,0.1-1.7c0.1-0.5,0.1-0.9,0.1-1.4c0-0.1,0.1-0.2,0.2-0.2l0.8-0.2c0.5-0.2,1.1-0.3,1.7-0.1c0.3,0,0.7,0,1,0
	c0.1,0,0.2,0,0.2,0.1c0.1,0.3,0.1,0.7,0.1,1c0,0.1,0,0.2,0,0.3c0,0.3,0,0.6,0.1,0.8C90,42.4,90.1,42.9,90,43.4z"/>
<path class="st0" d="M67.2,34.4c0-0.3-0.3-0.5-0.8-1.2c-0.1-0.1-0.3-0.3-0.3-0.4c-0.2-0.2-0.3-0.5-0.5-0.7c-0.2-0.3-0.4-0.6-0.6-0.9
	c-0.1-0.2-0.2-0.4-0.3-0.6c-0.1-0.6-0.5-1.2-1.1-1.5c-1.1-0.3-2.2-0.4-3.3-0.3c-0.3,0-0.7,0-0.9,0h-5.2c-0.5,0-1.2,0-1.8,0h-0.7l0,0
	c-0.3-0.1-0.6,0-0.7,0.2l-0.5,0.7c-0.9,1.3-1.8,2.6-2.6,3.9c-0.1,0.3-0.6,1.1-0.2,1.7c0.3,0.4,0.8,0.6,1.3,0.5c0.3,0,0.6,0,0.9-0.1
	h0.3c-0.1,0.7-0.2,1.3-0.2,2c0,0.4,0,0.7,0,1c-0.1,1.7-0.1,3.3,0,5V44c0,0.5,0,0.9,0.1,1.4c0,0.8,0.1,1.6,0.1,2.4V48
	c-0.1,1,0.1,2,0.3,3c0.4,1,1.8,1.1,3,1.2c0.3,0,0.5,0,0.8,0.1c0.4,0.1,0.8,0.1,1.2,0.1c0.8,0,1.7-0.1,2.5-0.2
	c0.7-0.1,1.5-0.2,2.2-0.2c0.4,0,0.7,0,1.1,0.1c1.2,0.1,2.5,0.3,3.3-0.3c0.8-0.6,0.7-1.6,0.6-2.3c0-0.1,0-0.3,0-0.4
	c-0.1-1.5-0.2-3-0.2-4.6c0-0.9,0.1-1.8,0.1-2.7c0.1-1.3,0.2-2.6,0.1-3.8c0-0.3-0.1-0.5-0.1-0.9C65,36.6,65,36,64.9,35.5
	c1.2,0,1.8-0.2,2.1-0.6C67.2,34.9,67.3,34.6,67.2,34.4z M59.8,51.3c0,0.1-0.1,0.1-0.2,0.1l0,0l-4.3-0.1c-0.1,0-0.1,0-0.1-0.1v-0.1
	c0-0.5,0-1,0-1.5c-0.1-0.7,0-1.5,0.1-2.2l0.1-0.4c0.1-0.4,0.1-0.7,0.1-1.1c0-0.1,0-0.2,0-0.3c0-0.2,0-0.5,0.1-0.7
	c0.3-0.5,0.8-0.4,1.1-0.4h0.2c0.3,0,0.6,0,0.8,0c0.3,0,0.7,0,1,0c0.6,0.1,0.6,0.2,0.6,0.7v0.1c0,0.8,0,1.7,0.2,2.5
	c0.2,0.7,0.3,1.4,0.3,2.2c0,0.1,0,0.2,0,0.3C59.9,50.8,59.9,51,59.8,51.3z"/>
<path class="st0" d="M123,19.9c0-0.8,0-1.6,0-2.5c0-0.2,0-0.6,0-0.9c0.1-1.3,0.1-3-0.4-3.9s-2-1-3.9-1.1h-0.6
	c-1.1-0.1-2.2-0.1-3.3,0c-1.1,0.1-2.1,0.1-3.2,0l-1.1-0.1c-1.4-0.2-2.8-0.2-4.2-0.2h-0.4c-1.3-0.1-2.6,0.2-3.7,0.9
	c-0.1,0.1-0.2,0.3-0.2,0.4c0,0.1-0.2,8.4-0.2,13.1c0,2,0.1,4.1,0.1,6.2c0,2.7,0.1,5.6,0.1,8.4c0,1,0,2.1,0,3.2s0,2,0,3
	c0,0.7,0,1.4,0.1,2.1V49c0,0.2,0,0.4,0,0.5c-0.2,0.6-0.1,1.3,0.2,1.9c0.5,0.7,1.7,0.6,3.5,0.5c0.3,0,0.7-0.1,1-0.1l1.6,0.1
	c1.1,0.1,2.2,0.1,3.4,0.1s2.1,0,3.1,0c2,0,4.1-0.1,6,0h0.2h0.4c0.6,0,1.1-0.3,1.3-0.8c0.3-0.7,0.3-1.4,0.2-2.2c0-0.2,0-0.4,0-0.6
	c0-0.9,0-1.9,0-2.8c0-1.4,0-2.9,0-4.3c0-5.8,0.2-11.7,0.5-17.6C123.1,22.5,123,21.2,123,19.9z M118.4,30.1c-0.1,0.1-0.2,0.1-0.4,0.1
	h-0.5h-0.2h-0.8h-0.7c-0.8,0-2.1,0-3.3,0h-1.8c-0.6,0-1.3,0-1.9,0s-1.3,0-1.9,0h-0.3c-0.2,0.1-0.5,0-0.7-0.1
	c-0.1-0.2-0.2-0.3-0.2-0.5s0-0.4,0-0.6s0-0.5,0-0.8c0-0.1,0.1-0.2,0.2-0.2h0.4c0.6-0.1,1.1-0.2,1.7-0.2h0.6c0.7,0,1.3,0,1.9,0h1.3
	h1.5c1.3,0,2.8-0.1,3.7-0.1h0.3c0.2-0.1,0.5-0.1,0.7,0s0.4,0.3,0.4,0.5v0.1V28C118.7,29,118.8,29.9,118.4,30.1L118.4,30.1z
	 M118.4,24.6c-0.1,0-0.3,0.1-0.4,0c-0.2,0-0.5,0-0.7-0.1c-0.2,0-0.3-0.1-0.5-0.1c-0.4,0-0.9,0-1.3,0h-0.7c-0.9,0-4,0-5.8,0h-0.4
	c-0.6,0-1.1,0-1.7,0l-0.3,0.1c-0.3,0.1-0.6,0.1-0.9,0.1c-0.6-0.3-0.2-2.3-0.2-2.3l0,0l0.1-0.1c0,0,0,0,0-0.1s0-0.1,0-0.2
	s0.1-0.1,0.2-0.1c1.4,0.3,2.7,0.4,4.1,0.4h0.7c1.2,0,3.5,0,4.8,0h0.7c0.7,0,1.5,0,2.2-0.1c0.1,0,0.1,0,0.2,0l0.1,0.1
	c0,0.2,0,0.4,0.1,0.6C118.8,23.6,118.9,24.4,118.4,24.6L118.4,24.6z M118.9,18c-0.1,0.3-0.2,0.5-0.3,0.5c-0.1,0-0.2,0.1-0.4,0.1
	c-0.2,0-0.4,0-0.6,0h-0.3h-1.6c-1.3,0-2.9,0-4.5,0s-3,0-4.2,0h-0.2c-0.5,0-1.2,0-1.3-0.8v-0.1c-0.1-0.4-0.2-1.1,0.2-1.3l0.4-0.4l0,0
	c0.2-0.1,0.4-0.1,0.6-0.1h0.2c0.1,0,0.3,0,0.4,0c0.2,0,0.3,0,0.5,0c0.6,0,1.1,0,1.7,0.1h1.4c0.5,0,1.1,0,1.8,0c1,0,2.1,0.1,2.8,0.1
	s1.2,0,1.9,0h0.2c0.4,0,0.7,0,1,0.2C119,16.8,119.1,17.4,118.9,18z"/>
<path class="st0" d="M190.9,42.5c-0.1-0.1-0.2-0.2-0.3-0.3c-0.2-0.2-0.3-0.5-0.4-0.7c-0.1-0.2-0.2-0.4-0.4-0.7s-0.4-0.5-0.6-0.8
	c-0.3-0.4-0.7-0.9-0.7-1.2c0-0.2-0.1-0.3-0.2-0.4c-0.1-0.1-0.2-0.1-0.3-0.1c0.2-2.1,0.4-4.3,0.4-6.5h0.7c0.2,0,0.4-0.1,0.5-0.3
	c0.1-0.2,0.1-0.4,0-0.5c-0.3-0.5-0.8-1-1.3-1.5l-0.4-0.4c-0.8-0.8-1.7-1.6-2.6-2.3l-1.9-1.5c-0.2-0.1-0.4-0.3-0.6-0.4
	c-0.3-0.1-0.5-0.3-0.7-0.5c-0.1-0.1-0.2-0.2-0.4-0.3c-0.2,0-0.3,0-0.5,0.1l0,0h-0.1c-1.4,0.8-2.8,1.7-4.1,2.8l-1,0.7
	c-1.1,0.7-2.1,1.6-3,2.5c-0.2,0.2-0.3,0.3-0.5,0.5c-0.4,0.3-0.7,0.6-0.9,1c-0.1,0.2-0.1,0.5,0.1,0.7c0.3,0.2,0.6,0.4,1,0.3
	c0.3,0,0.7,0,1-0.1c0,0.1,0,0.2,0.1,0.3c-0.1,1.1-0.2,2.1-0.5,3.2c-0.1,0.5-0.2,0.9-0.2,1.1s0,0.2-0.1,0.3c-0.2,0.6-0.2,1.2-0.1,1.8
	c-0.2,0.3-0.5,0.6-0.7,0.9c-0.2,0.2-0.5,0.5-0.7,0.7s-0.3,0.4-0.5,0.7c-0.3,0.4-0.6,0.8-0.9,1.2c-0.1,0.1-0.2,0.3-0.2,0.4
	c0,0.2,0,0.3,0.2,0.4c0.7,0.5,1.6,0.7,2.5,0.6c0,0.2,0,0.5,0,0.7s0,0.4,0,0.6v0.8c0,0.6-0.1,1.2-0.1,1.9c0,0.2,0,0.4-0.1,0.5
	c-0.2,0.6-0.2,1.3,0,1.9c0.3,0.7,1.3,0.9,2.1,0.9h0.8h0.3c1.3,0,2.6-0.2,3.8-0.3c1.6-0.1,3.3-0.3,4.9-0.3c0.4,0,0.9,0,1.3,0.1
	c0.5,0.1,1.1,0.1,1.6,0.1c1,0,1.8-0.2,1.8-1.7c0-0.5,0-1.1-0.1-1.6c0-0.7-0.1-1.4,0-2.1v-0.2c0-0.4,0-0.8,0-1.2h0.6
	c0.5,0,0.9,0,1.4-0.1c0.3-0.1,0.4-0.3,0.4-0.6C191.5,43.2,191.3,42.8,190.9,42.5z M183.1,36.2c0,0.1,0,0.2,0,0.3
	c0,0.3-0.1,0.6-0.3,0.8c-0.3,0.2-0.7,0.3-1.1,0.2c-0.2,0-0.3,0-0.5,0h-0.4h-0.5c-0.1,0-0.3,0-0.4-0.1c-0.3-0.1-0.4-0.2-0.4-0.5
	c0-0.1,0-0.2,0-0.3c-0.1-0.5-0.1-0.9,0-1.4c0-0.2,0-0.4,0-0.6c0-0.1,0.1-0.2,0.2-0.2l0,0h0.1c0.2-0.2,0.4-0.3,0.6-0.4
	c0.3-0.1,0.6-0.1,0.8,0h0.2h0.4c0.4,0,0.7,0,1.1,0c0.1,0,0.2,0.1,0.2,0.1C183.2,34.8,183.2,35.5,183.1,36.2z"/>
<path class="st0" d="M204.7,41.1c0.8-0.4,1.3-1.3,1.2-2.2c-0.1-1-0.8-1.9-1.7-2.2l0,0c0.4-0.9,0.3-2-0.2-2.9
	c-0.9-1.1-2.2-1.8-3.6-1.8c-1.2-0.2-2.4,0.3-3.1,1.3c-0.6,0.6-0.9,1.4-0.6,2.3c-0.2,0.1-0.3,0.1-0.5,0.2c-0.7,0.4-1.3,1-1.5,1.8
	c-0.2,0.7-0.1,1.4,0.3,2.1c0.2,0.3,0.5,0.6,0.9,0.8c-0.7,0.6-0.9,1.6-0.6,2.5c0.3,1.1,1.1,2,2.2,2.5h0.1c0.2,0,1.1,0.1,2.2,0.2
	c0,0.4,0,0.7,0.1,1.1c0,0.4,0,0.8-0.1,1.2c-0.1,1.1-0.3,2.3,0.3,3c0.1,0.2,0.3,0.3,0.5,0.3c0.1,0,0.2,0,0.3-0.1
	c0.3-0.2,0.3-0.5,0.2-0.8l0,0c-0.2-0.7-0.2-1.5-0.1-2.3c0.1-0.5,0.1-0.9,0.1-1.4c0-0.3,0-0.7-0.1-1h0.9c0.5,0,0.9,0,1.4-0.1
	c0.6-0.1,2.4-0.5,2.5-2.3C205.8,42.3,205.4,41.5,204.7,41.1z"/>
<path class="st0" d="M230.9,40.2c-1.1-1.6-3.2-2.5-5-3.4c-0.7-0.3-1.3-0.6-1.9-0.9l-4.7-2.6c-0.2-0.1-0.4-0.1-0.6,0
	c-1.4,0.8-2.6,1.8-3.8,2.9l-0.5,0.4c-0.4,0.3-0.8,0.7-1.3,1.1c-1.3,0.9-2.4,2.1-3.3,3.3c-0.1,0.2-0.1,0.4,0,0.6
	c0.1,0.2,0.3,0.3,0.5,0.3l0,0h1.5c0,1-0.1,2-0.1,3l-0.1,1.5c0,0.2,0,0.4,0,0.7c-0.2,1.2-0.1,2.4,0.2,3.5l-0.1,0.3
	c0,0.2,0,0.4,0.2,0.6c0.2,0.1,0.4,0.2,0.6,0.1c0.9-0.2,1.8-0.2,2.7,0h0.2c0.4,0,0.7,0.1,1.1,0.1c0.7,0,1.3-0.1,2-0.1
	c0.6-0.1,1.2-0.1,1.8-0.1c0.9,0,1.7-0.1,2.6-0.2c0.6,0,1.3-0.1,1.9-0.1c0.5,0,1,0,1.5,0.1c0.7,0.1,1.5,0.1,2.2,0
	c0.6-0.1,0.6-0.7,0.6-1.2s0-0.8-0.1-1.3s-0.1-1.2-0.1-1.6v-6c0.5,0,1,0,1.5-0.2c0.2-0.1,0.3-0.2,0.4-0.4
	C231,40.5,230.9,40.3,230.9,40.2z M224.2,50.9c0,0-0.1,0.1-0.2,0.1l0,0l-3.3-0.3c-0.1,0-0.2-0.1-0.2-0.2c-0.2-1.4-0.1-2.8,0.3-4.2
	c0.4-1.3,1.5-1.3,2.6-1.3h0.4c0.1,0,0.2,0.1,0.2,0.2c0.1,0.8,0.1,1.5,0,2.3c-0.2,1-0.1,2.1,0.2,3.1
	C224.3,50.8,224.3,50.9,224.2,50.9L224.2,50.9z"/>
<path class="st0" d="M258.8,33.9c-0.7-0.8-1.2-1.7-1.6-2.7c-0.7-1.7-1.4-3.4-3-3.7c-0.7-0.1-1.4,0-2.1,0.1c-0.3,0-0.6,0.1-0.8,0.1
	c-0.6,0-1.3,0.1-1.9,0.1s-1.2,0-1.8,0.1c-1.2,0-2.5,0-3.7-0.1h-1c-0.3,0-0.8,0-0.9,0.3s-0.9,1.2-1.2,1.8c-0.2,0.4-0.5,0.9-0.7,1.3
	c-0.2,0.5-0.4,0.9-0.6,1.3c0,0-0.1,0.2-0.2,0.3c-0.7,1-1.3,1.8-0.9,2.4c0.2,0.3,0.6,0.4,2,0.5l0,0c-0.3,1.4-0.4,2.8-0.2,4.3
	c0,0.5,0.1,1.1,0.1,1.5c0,1.1,0,2.1,0.1,3.2s0,2.1,0,3.1v1.9c0,0.2,0,0.3,0,0.5c0,0.8,0,1.3,1.2,1.6c0.8,0.2,1.6,0.3,2.4,0.3
	c1.3,0,2.7-0.1,4-0.3l1.3-0.1c1.2-0.1,2.4,0,3.5,0.2s2.3,0.3,3.4,0.2c0.3,0,0.6-0.3,0.5-0.6c0-1.7-0.1-3.4-0.2-5.1s-0.2-3.3-0.2-5
	c0-1.3-0.1-2.7-0.3-4c-0.1-0.6-0.2-1.1-0.3-1.6v-0.1c1-0.2,1.9-0.4,2.8-0.8c0.2-0.1,0.3-0.2,0.4-0.5C259,34.2,258.9,34,258.8,33.9z
	 M249.3,41.4c-0.7,0.2-1.5,0.3-2.2,0.3c-0.5,0-1,0-1.4-0.2c-0.6-0.4-0.6-1.6-0.5-2.6c0-0.2,0-0.3,0-0.5v-0.1l0.1-0.1
	c0,0,0-0.1,0.1-0.1c0.1-0.1,0.2-0.2,0.3-0.3s0.2-0.1,0.3,0s0.1,0.2,0,0.3v0.1c0.4,0,0.7,0,1.1,0h0.4c0.2,0,0.4,0,0.6-0.1
	c0.5-0.1,1-0.1,1.4,0c0.5,0.3,0.7,0.9,0.7,1.5C250.1,40.3,249.9,41,249.3,41.4L249.3,41.4z"/>
<path class="st0" d="M288.5,43.9L288.5,43.9c-0.4-2.4-0.5-4.7-0.4-7.1c0-0.7,0-1.3,0-2c0-3.2-0.2-6.4-0.4-9.5
	c-0.2-2.9-0.3-5.8-0.4-8.7c0-0.7,0-1.5-0.1-2.2c-0.1-0.9-0.1-1.9-0.1-2.8c0-0.2-0.1-0.3-0.2-0.4c-0.1-0.1-0.3-0.2-0.5-0.2
	c-1.1,0.1-3.6,0.1-6.1,0.1c-1.9,0-3.7,0-4.7,0.1c-2.5,0.1-7.7-0.1-7.8-0.1c-0.3,0-0.5,0.2-0.6,0.5c-0.2,1.1-0.2,2.2-0.1,3.3
	c0,0.5,0,0.9,0,1.4c0,1.2,0,2.3,0.1,3.5s0.1,2,0.1,3s-0.1,2.3-0.2,3.4c-0.1,1.4-0.2,2.9-0.1,4.3c0,1.1,0.1,2.1,0.2,3.2
	c0.2,1.7,0.2,3.4,0.2,5.1c0,0.7,0,1.3-0.1,2c-0.2,2.9-0.2,5.8,0,8.8v0.1c-0.1,0.7,0.3,1.3,0.8,1.6c0.3,0.1,0.7,0.2,1,0.2
	c0.4,0,0.8,0,1.2-0.1h0.7c1.2,0,2.5-0.1,3.7-0.2s2.4-0.2,3.6-0.2l0,0c0.7,0,1.4,0,2.1,0c1.3,0,2.7,0,4,0c0.5,0,1.1,0.1,1.6,0.2
	c0.9,0.1,1.7,0.2,2.6,0.2c0.3,0,0.5-0.2,0.6-0.5C289.3,48.5,289,46.2,288.5,43.9z M271.1,18.5c0-0.1,0-0.1,0-0.2
	c0.2-0.4,0.2-0.9,0.3-1.4c0-0.4,0.1-0.7,0.2-1.1c0-0.1,0.1-0.1,0.2-0.1s0.2,0.1,0.2,0.2l0,0c0.8-0.6,2.4-0.6,3.6-0.6h0.7
	c1,0,2.1,0,3.2,0c0.7,0,1.5,0,2.2,0h0.4c0.7,0,1.1,0,1.4,0.9c0.2,0.4,0.2,0.9,0,1.3c-0.2,0.3-0.6,0.5-1,0.6
	c-1.1,0.2-2.2,0.2-3.3,0.1c-0.6,0-1.3,0-1.9,0s-1.5,0.1-2.2,0.1c-1,0.1-2.1,0.2-3.2,0.2h-0.5C271.2,18.6,271.1,18.6,271.1,18.5z
	 M271.8,23.2l0.7-0.2c0.4-0.4,1.2-0.3,1.8-0.3c0.2,0,0.5,0,0.7,0l1.3-0.1c0.7,0,1.3-0.1,2-0.1h0.5c1.3,0,3.1-0.1,3.8,0.8
	c0.3,0.5,0.4,1.1,0.1,1.6c-0.3,1-2.1,1-3.4,1h-0.9c-0.7,0-1.4-0.1-2.1-0.1c-0.8-0.1-1.7-0.1-2.5-0.1c-0.2,0-0.5,0.1-0.7,0.1
	c-0.6,0.1-0.9,0.2-1.4-0.7c-0.2-0.4-0.3-0.9-0.2-1.3c0-0.1,0-0.3,0-0.4C271.6,23.4,271.6,23.3,271.8,23.2L271.8,23.2z M283.1,31.6
	c-0.5,0.5-1.3,0.4-2.2,0.3h-0.1c-0.9-0.1-1.8,0-2.7,0.2c-0.7,0.1-1.4,0.2-2.1,0.2l0,0c-0.7,0-1.4-0.1-2.1-0.2
	c-0.6-0.1-1.1-0.1-1.7-0.2c-0.1,0-0.2-0.1-0.2-0.2s-0.1-0.3-0.1-0.5c-0.2-0.5-0.2-1.1-0.1-1.6c0,0,0-0.1,0.1-0.1l0.3-0.2
	c0.1-0.1,0.1-0.1,0.2-0.1l0,0c0-0.1,0-0.1,0-0.1l0.1-0.1c1.2,0,2.4,0,3.6,0c0.9,0,1.9-0.1,2.8-0.1c0.5,0,1,0,1.4,0.1s1,0,1.5,0h0.3
	c0.5,0,0.8,0,1.1,0.2c0.2,0.3,0.3,0.6,0.3,1C283.7,30.7,283.5,31.2,283.1,31.6z"/>
<path class="st0" d="M546.9,41.1c0.8-0.4,1.3-1.3,1.2-2.2c-0.1-1-0.8-1.9-1.7-2.2l0,0c0.4-0.9,0.3-2-0.2-2.9
	c-0.9-1.1-2.2-1.8-3.6-1.8c-1.2-0.2-2.4,0.3-3.2,1.3c-0.6,0.6-0.9,1.4-0.6,2.3c-0.2,0.1-0.3,0.1-0.5,0.2c-0.7,0.4-1.3,1-1.5,1.8
	c-0.2,0.7-0.1,1.4,0.2,2.1c0.2,0.3,0.5,0.6,0.9,0.8c-0.7,0.6-0.9,1.6-0.6,2.5c0.3,1.1,1.1,2,2.2,2.5h0.1c0.2,0,1.2,0.1,2.2,0.2
	c0,0.4,0,0.7,0,1.1c0,0.4,0,0.8-0.1,1.2c-0.3,1-0.2,2.1,0.3,3c0.1,0.2,0.3,0.3,0.5,0.3c0.1,0,0.2,0,0.3-0.1c0.3-0.2,0.3-0.5,0.2-0.8
	l0,0c-0.2-0.7-0.2-1.5-0.1-2.3c0.1-0.5,0.1-0.9,0.1-1.4c0-0.3,0-0.7,0-1h0.9c0.5,0,0.9,0,1.4-0.1c0.6-0.1,2.4-0.5,2.5-2.3
	C547.9,42.2,547.6,41.5,546.9,41.1z"/>
<path class="st0" d="M386.8,41.1c0.8-0.4,1.3-1.3,1.2-2.2c-0.1-1-0.8-1.9-1.7-2.2l0,0c0.4-0.9,0.3-2-0.2-2.9
	c-0.9-1.1-2.2-1.8-3.6-1.8c-1.2-0.2-2.4,0.3-3.1,1.3c-0.6,0.6-0.9,1.4-0.6,2.3c-0.2,0.1-0.3,0.1-0.5,0.2c-0.7,0.4-1.3,1-1.5,1.8
	c-0.2,0.7-0.1,1.4,0.3,2.1c0.2,0.3,0.5,0.6,0.9,0.8c-0.7,0.6-0.9,1.6-0.6,2.5c0.3,1.1,1.1,2,2.2,2.5h0.1c0.2,0,1.1,0.1,2.2,0.2
	c0,0.4,0,0.7,0,1.1c0,0.4,0,0.8-0.1,1.2c-0.1,1.1-0.3,2.3,0.3,3c0.1,0.2,0.3,0.2,0.5,0.3c0.1,0,0.2,0,0.3-0.1
	c0.3-0.2,0.3-0.5,0.2-0.8l0,0c-0.2-0.7-0.2-1.5-0.1-2.3c0.1-0.5,0.1-0.9,0.1-1.4c0-0.3,0-0.7,0-1h0.9c0.5,0,0.9,0,1.4-0.1
	c0.6-0.1,2.4-0.5,2.5-2.3C387.9,42.2,387.5,41.5,386.8,41.1z"/>
<path class="st0" d="M43.5,41.1c0.8-0.4,1.3-1.3,1.2-2.2c-0.1-1-0.8-1.9-1.7-2.2l0,0c0.4-0.9,0.3-2-0.2-2.9
	c-0.9-1.1-2.2-1.8-3.6-1.8c-1.2-0.2-2.4,0.3-3.1,1.3c-0.6,0.6-0.9,1.4-0.6,2.3c-0.2,0.1-0.3,0.1-0.5,0.2c-0.7,0.4-1.3,1-1.5,1.8
	c-0.2,0.7-0.1,1.4,0.3,2.1c0.2,0.3,0.5,0.6,0.9,0.8c-0.7,0.6-0.9,1.6-0.6,2.5c0.3,1.1,1.1,2,2.2,2.5h0.1c0.3,0,2.6,0.3,4.3,0.3
	c0.5,0,0.9,0,1.4-0.1c0.6-0.1,2.4-0.5,2.5-2.3C44.6,42.3,44.2,41.5,43.5,41.1z"/>
<path class="st0" d="M39.2,51c-0.2,0-0.4-0.1-0.5-0.3c-0.4-1-0.5-2-0.3-3c0.1-0.4,0.1-0.8,0.1-1.2c-0.1-1.3-0.1-2.7-0.2-4
	c0-0.3,0.3-0.6,0.6-0.6s0.6,0.3,0.6,0.6c0,1.3,0.1,2.7,0.2,4c0,0.5,0,0.9-0.1,1.4c-0.2,0.7-0.2,1.5,0.1,2.3c0.2,0.3,0.1,0.6-0.1,0.8
	l0,0C39.4,51,39.3,51,39.2,51z"/>
<path class="st0" d="M163.9,29.3c-0.1-0.5-0.2-1-0.2-1.5l-0.1-0.6c0,0,0-0.2,0-0.4c-0.1-1-0.1-1.2-0.3-1.4c-0.4-0.4-1.1-0.4-2.1-0.3
	h-0.3h-3c-0.4,0-0.9,0-1.4,0c-0.9-0.1-1.7-0.1-2.6,0c0-0.8,0-1.6-0.1-2.4s-0.1-1.8-0.1-2.7c0-0.1,0-0.4,0.1-0.6
	c0.1-0.7,0.1-1.3-0.1-2c-0.4-1-1.8-1-2.7-0.9h-0.5l-1.3-0.1c-1.1-0.1-2.3-0.1-3.5-0.1h-0.6c-1-0.2-2-0.1-3,0.3
	c-1.2,0.8-0.9,3-0.8,4.6c0.1,0.4,0.1,0.7,0.1,0.9s0,0.4,0,0.6c0.1,0.9,0.1,1.8,0,2.8c-0.8,0.1-2.5,0.2-3.4,0.2c-0.6,0-1.3-0.1-2-0.2
	c-1-0.1-2.1-0.2-3.1-0.2c-0.9,0.1-1.1,0.2-1.4,1c0,0.1,0,0.1-0.1,0.2c-0.2,0.6-0.3,1.2-0.4,1.8c-0.1,1.3-0.1,2.6,0.1,3.9
	c0.1,0.8,0.1,1.7,0.1,2.5c0,2.3-0.1,4.7-0.3,7s-0.3,4.7-0.3,7.1c0,0.1,0,0.2,0,0.4c0,0.6-0.1,1.5,0.5,1.9c0.5,0.2,1,0.2,1.4,0.1h0.3
	l0,0c1.2,0,2.4-0.1,3.5-0.2l1.2-0.1c2.6-0.2,5.3-0.1,7.9-0.1c1.3,0,2.7,0.1,4,0.1h0.6c2.1,0,4.2,0,6.3,0.1c0.6,0,1.2,0.1,1.9,0.2
	c0.9,0.1,1.7,0.2,2.6,0.2c0.4,0,0.8,0,1.1-0.1h0.3c0.8-0.1,0.9-0.5,1-1.2c0-0.4,0-0.8,0-1.2c0-0.2,0-0.5,0-0.7l0.1-1.2
	c0-1.1,0.1-2.2,0.1-3.4c0-2.6,0-6.1,0.3-9.4C164.3,32.5,164.2,30.9,163.9,29.3z M140.9,39.9c-0.4,0.3-0.8,0.4-1.3,0.3H139h-0.5
	c-1,0-2.3,0-2.6-0.7c-0.1-0.4-0.1-0.7,0-1.1c0-0.2,0-0.4,0-0.6c-0.1-0.4,0-0.9,0.1-1.3l0,0l0.3-0.3c0-0.1,0.1-0.1,0.2-0.1
	c0.3,0.1,0.5,0.1,0.8,0c0.2,0,0.3,0,0.5,0c0.4,0,0.8,0.1,1.2,0.2l0.5,0.1h0.2c1.1,0.2,1.7,0.4,1.7,1.9
	C141.4,38.9,141.2,39.4,140.9,39.9L140.9,39.9z M140.9,32.7c-0.4,0.3-0.8,0.4-1.3,0.3h-0.7h-0.5c-1,0-2.3,0-2.6-0.7
	c-0.1-0.4-0.1-0.7,0-1.1c0-0.2,0-0.4,0-0.6c-0.1-0.4,0-0.9,0.1-1.3l0,0l0.3-0.3c0.1-0.1,0.1-0.1,0.2-0.1c0.3,0.1,0.5,0.1,0.8,0
	c0.2,0,0.3,0,0.5,0c0.4,0,0.8,0.1,1.2,0.2c0.2,0,0.3,0.1,0.5,0.1h0.2c1.1,0.2,1.7,0.4,1.7,1.9C141.4,31.7,141.2,32.3,140.9,32.7
	L140.9,32.7z M153.3,29.4l0.1-0.1l0.4-0.1h0.1c0.6,0.2,1.3,0.2,1.9,0.2c0.5,0,1.1,0.1,1.6,0.1h0.4c0.4,0,0.8,0.1,1.1,0.4
	c0.3,0.7,0.2,1.5-0.1,2.2c-0.4,0.5-1.7,0.6-2.8,0.6c-0.7,0-1.3,0-2-0.2c-0.8-0.3-0.8-0.6-0.8-1.2c0-0.1,0-0.3,0-0.5
	c0-0.1,0-0.2,0-0.4C153.1,30.2,153.1,29.7,153.3,29.4L153.3,29.4z M145.9,20.1c0.7-1,2.8-0.9,3.7-0.3c1.1,0.8,1.7,2.2,1.4,3.6
	c-0.1,0.7-0.5,1.4-1.2,1.8c-0.4,0.2-0.9,0.3-1.4,0.3c-1,0-2-0.4-2.7-1.2C144.8,23.1,144.8,21.6,145.9,20.1L145.9,20.1z M144.2,30.1
	c0-0.3,0.1-0.5,0.1-0.8c0-0.1,0.1-0.2,0.1-0.2l0.2-0.1l0,0c0-0.1,0.1-0.1,0.2-0.1l0,0c1.1,0,2.3,0.1,3.4,0.1l1.8,0.1
	c0.1,0,0.2,0.1,0.2,0.2c0,0.2,0.1,0.5,0.2,0.8c0.3,0.6,0.3,1.3,0.2,2c-0.3,0.8-1.7,0.7-2.7,0.6h-0.6c-0.2,0-0.4,0-0.7,0
	s-0.7,0.1-1,0.1c-0.5,0.1-1-0.1-1.3-0.6C144,31.5,144,30.8,144.2,30.1L144.2,30.1z M144.2,37.2c0-0.3,0.1-0.6,0.1-0.8
	c0-0.1,0.1-0.2,0.1-0.2l0.2-0.1l0,0c0-0.1,0.1-0.1,0.2-0.1c1.1,0,2.3,0.1,3.4,0.2l1.8,0.1c0.1,0,0.2,0.1,0.2,0.2
	c0,0.2,0.1,0.5,0.2,0.8c0.3,0.6,0.3,1.3,0.2,2c-0.3,0.8-1.7,0.7-2.7,0.6c-0.3,0-0.5,0-0.6,0l-0.7,0.1c-0.3,0-0.6,0.1-1,0.1
	c-0.5,0.1-1-0.1-1.3-0.5C144,38.7,144,38,144.2,37.2L144.2,37.2z M151.4,49.8h-0.1h-7.1c-0.1,0-0.1,0-0.1-0.1
	c-0.5-0.7-0.7-1.6-0.6-2.5c0-0.2,0-0.5,0-0.7s0-0.2,0-0.3c-0.1-0.6-0.1-0.8,0.6-1.1c0.7-0.2,1.5-0.3,2.3-0.2h0.7
	c0.5,0,1.1,0,1.6,0.1s0.9,0.1,1.3,0.1h0.4c0.6,0,1.1,0,1.2,1c0,0.3,0,0.6-0.1,0.9c0,0.3,0,0.7,0,1c0,0.1,0.1,0.2,0.1,0.3
	C151.6,49,151.7,49.5,151.4,49.8L151.4,49.8z M158.8,39.3c-0.4,0.5-1.7,0.6-2.8,0.6c-0.7,0-1.3,0-2-0.2c-0.8-0.3-0.8-0.7-0.8-1.2
	c0-0.1,0-0.3,0-0.4c0-0.1,0-0.3,0-0.4c-0.1-0.4,0-0.9,0.1-1.3l0.1-0.1l0.4-0.1h0.1c0.6,0.2,1.3,0.2,1.9,0.2c0.5,0,1.1,0.1,1.6,0.2
	h0.4c0.4,0,0.8,0.1,1.1,0.4C159.2,37.8,159.2,38.7,158.8,39.3L158.8,39.3z"/>
<path class="st0" d="M147,23.1c0.1,0,0.2,0,0.4,0c0.1,0,0.3,0,0.4,0c0.3,0,0.5-0.1,0.7-0.2c0.5-0.4,0.3-1.9,0.2-2.1
	c-0.1-0.3-0.5-0.4-0.8-0.3s-0.4,0.5-0.3,0.8c0,0.2,0,0.4,0,0.7h-0.2c-0.3-0.1-0.6,0-0.9,0c-0.3,0.1-0.5,0.4-0.3,0.7l0,0
	C146.3,23.1,146.7,23.2,147,23.1L147,23.1z"/>
<path class="st0" d="M441.1,49.4c0-0.2,0-0.3-0.1-0.4c-0.1-1.9-0.1-3.9,0-5.8c0-1.1,0.1-2.3,0.1-3.4c0-0.1,0-0.2,0-0.4
	c0.1-2.2,0-3.8-0.6-4.3l0,0c-0.2-0.7-0.4-1.3-0.8-1.9c-0.6-1.1-1.4-2.1-2.2-3c-0.3-0.3-0.5-0.6-0.8-0.9c-0.5-0.6-1-1.2-1.5-1.8
	s-1-1.1-1.5-1.7c-0.3-0.4-0.5-0.7-0.8-1.1c-0.4-0.5-0.8-1.1-1.2-1.5c-0.2-0.2-0.4-0.2-0.6-0.2c-0.1,0-0.2,0.1-0.2,0.2h-0.1
	c-0.1,0.1-0.2,0.3-0.2,0.5l0,0c-0.4,0.7-0.8,1.3-1.4,1.8c-0.3,0.3-0.5,0.6-0.8,0.9c-0.7,1-1.4,2-2.1,3.1c-0.4,0.6-0.8,1.2-1.1,1.7
	c-0.2,0.4-0.5,0.8-0.6,1.2c-0.1,0.3-0.3,0.6-0.5,0.9c-0.1,0.1-0.2,0.3-0.3,0.4c-0.2,0.2-0.4,0.5-0.6,0.8c-0.2,0.4-0.2,0.8,0,1.2
	c-0.4,0.8-0.5,1.7-0.4,2.7c0,0.2,0,0.4,0,0.6l-0.1,1.2c-0.1,1.4-0.1,2.9-0.1,4.3c0.1,1.3,0.1,2.7,0.1,4.1c0,1,0,2,0.1,3
	c0,0.3,0.3,0.5,0.5,0.5c1.2,0.1,2.4,0.1,3.6,0.1c1.6,0,3.1,0,4.6-0.1c1.9,0,3.8-0.1,5.7-0.1l0.8,0.1c0.7,0.1,1.5,0.1,2.2-0.1
	c0.1,0,0.1,0,0.2,0c0.3,0,0.5-0.3,0.6-0.5v-0.1C441.2,50.6,441.2,49.9,441.1,49.4z M429.2,43.9c-0.7,0.3-1.4,0.4-2.2,0.3
	c-0.5,0-0.9,0-1,0s-0.2-0.1-0.2-0.2l-0.1-3.8c0-0.1,0-0.2,0.1-0.3h0.1c0.5,0,0.9,0,1.4,0.1c0.6,0.1,1.1,0.1,1.7,0
	c0.1,0,0.2,0,0.2,0.1C429.5,40.8,429.8,43.3,429.2,43.9z M437.1,43.4c-0.1,0.6-0.6,0.7-1.2,0.7c-0.2,0-0.4,0-0.6,0h-0.5h-0.4
	c-0.3,0-0.6,0-0.9,0h-0.3c-0.4,0-0.5-0.2-0.5-0.5c0,0,0-0.1,0-0.2c0-0.6,0-1.1,0.1-1.7c0.1-0.5,0.1-0.9,0.1-1.4
	c0-0.1,0.1-0.2,0.1-0.2l0.8-0.2c0.5-0.2,1.1-0.3,1.7-0.1c0.3,0,0.7,0,1,0c0.1,0,0.2,0,0.2,0.1c0.1,0.3,0.1,0.7,0.1,1v0.3
	c0,0.3,0.1,0.6,0.1,0.8C437.1,42.5,437.1,43,437.1,43.4L437.1,43.4z"/>
<path class="st0" d="M414.3,34.4c0-0.3-0.3-0.5-0.8-1.2c-0.1-0.1-0.2-0.2-0.3-0.4c-0.2-0.2-0.3-0.5-0.5-0.7
	c-0.2-0.3-0.4-0.6-0.6-0.9c-0.1-0.2-0.2-0.4-0.3-0.6c-0.1-0.6-0.5-1.2-1.1-1.5c-1.1-0.3-2.2-0.4-3.3-0.3c-0.4,0-0.7,0-0.9,0h-5.2
	c-0.5,0-1.2,0-1.9,0h-0.7l0,0c-0.3-0.1-0.6,0-0.8,0.2l-0.5,0.7c-0.9,1.2-1.8,2.6-2.6,3.9c-0.1,0.3-0.6,1.1-0.1,1.7
	c0.3,0.4,0.8,0.5,1.2,0.5c0.3,0,0.6,0,0.9-0.1h0.4c-0.1,0.7-0.2,1.4-0.1,2c0,0.4,0,0.7,0,1c-0.1,1.7-0.1,3.3,0,5V44
	c0,0.5,0,0.9,0.1,1.4c0,0.8,0.1,1.6,0.1,2.4V48c-0.1,1,0.1,2,0.3,3c0.4,1,1.9,1.1,3,1.2c0.3,0,0.5,0,0.8,0.1
	c0.4,0.1,0.8,0.1,1.2,0.1c0.8,0,1.7-0.1,2.5-0.2c0.7-0.1,1.5-0.2,2.2-0.2c0.4,0,0.7,0,1.1,0.1c1.2,0.1,2.5,0.3,3.3-0.3
	s0.7-1.6,0.6-2.3c0-0.1,0-0.3,0-0.4c-0.1-1.5-0.2-3-0.2-4.6c0-0.9,0.1-1.8,0.1-2.7c0.1-1.3,0.2-2.6,0.1-3.8c0-0.3-0.1-0.5-0.1-0.9
	c-0.1-0.5-0.1-1.1-0.1-1.6c1.2,0,1.8-0.2,2.1-0.6C414.3,34.8,414.4,34.6,414.3,34.4z M406.9,51.3c0,0.1-0.1,0.1-0.2,0.1l0,0
	l-4.3-0.1c-0.1,0-0.1,0-0.1-0.1v-0.1c0-0.5,0-1,0-1.5c0-0.7,0-1.5,0.1-2.2c0-0.1,0-0.3,0.1-0.4c0.1-0.4,0.1-0.7,0.2-1.1v-0.3
	c0-0.2,0-0.5,0.1-0.7c0.3-0.5,0.8-0.4,1.1-0.4h0.2c0.3,0,0.6,0,0.8,0c0.3,0,0.7,0,1,0c0.6,0.1,0.6,0.2,0.6,0.7v0.1
	c0,0.8,0,1.7,0.2,2.5c0.1,0.7,0.2,1.4,0.3,2.2c0,0.1,0,0.2,0,0.3C407,50.8,407,51,406.9,51.3L406.9,51.3z"/>
<path class="st0" d="M470.1,19.9c0-0.8,0-1.6,0-2.5c0-0.2,0-0.6,0-0.9c0.1-1.3,0.1-3-0.4-3.9s-2-1-3.9-1.1h-0.6
	c-1.1-0.1-2.2-0.1-3.4,0c-1.1,0.1-2.1,0.1-3.2,0l-1.1-0.1c-1.4-0.2-2.8-0.2-4.2-0.2h-0.4c-1.3-0.1-2.6,0.2-3.7,0.9
	c-0.1,0.1-0.2,0.3-0.2,0.4c0,0.1-0.2,8.4-0.2,13.1c0,2,0,4.1,0.1,6.2c0,2.7,0.1,5.6,0.1,8.4c0,1,0,2.1,0,3.2s0,2,0,3
	c0,0.7,0,1.4,0.1,2.1c0,0.2,0,0.4,0,0.6c0,0.2,0,0.4,0,0.5c-0.1,0.6-0.1,1.3,0.1,1.9c0.5,0.7,1.7,0.6,3.5,0.5c0.3,0,0.7-0.1,1-0.1
	l1.6,0.1c1.1,0.1,2.2,0.1,3.4,0.1s2,0,3,0c2,0,4.1-0.1,6,0h0.2h0.4c0.6,0,1.1-0.3,1.3-0.8c0.3-0.7,0.3-1.4,0.2-2.2
	c0-0.2,0-0.4,0-0.6c0-0.9,0-1.9,0-2.8c0-1.4,0-2.9,0-4.3c0-5.8,0.2-11.7,0.5-17.6C470.1,22.5,470.1,21.2,470.1,19.9z M465.4,30.1
	c-0.1,0.1-0.2,0.1-0.4,0.1h-0.5h-0.2h-0.8h-0.7c-0.8,0-2.1,0-3.3,0h-1.8c-0.6,0-1.3,0-1.9,0s-1.3,0-1.9,0h-0.3c-0.3,0-0.5,0-0.7-0.2
	c-0.1-0.2-0.2-0.3-0.2-0.5s0-0.4,0-0.6s0-0.5,0-0.8c0-0.1,0.1-0.2,0.2-0.2l0,0h0.4c0.6-0.1,1.2-0.2,1.7-0.2h0.6c0.6,0,1.3,0,1.9,0
	h1.3h1.5c1.3,0,2.8-0.1,3.7-0.1l0,0h0.3c0.2-0.1,0.5-0.1,0.7,0s0.4,0.3,0.4,0.5v0.1v0.1C465.8,29,465.9,29.9,465.4,30.1z
	 M465.4,24.6c-0.1,0-0.3,0.1-0.4,0c-0.2,0-0.5,0-0.7-0.1c-0.2,0-0.3-0.1-0.5-0.1c-0.4,0-0.9,0-1.3,0h-0.7c-0.9,0-4,0-5.8,0h-0.4
	c-0.6,0-1.1,0-1.7,0l-0.3,0.1c-0.3,0.1-0.6,0.1-0.9,0.1c-0.6-0.3-0.2-2.3-0.2-2.3l0,0l0.1-0.1v-0.1c0-0.1,0-0.1,0-0.2
	s0.1-0.1,0.2-0.1c1.4,0.3,2.7,0.4,4.1,0.4h0.7c1.2,0,3.5,0,4.8,0h0.7c0.7,0,1.5,0,2.2-0.1c0.1,0,0.1,0,0.2,0l0.1,0.1
	c0,0.2,0,0.4,0.1,0.6C465.9,23.6,466,24.4,465.4,24.6z M466,18c0,0.2-0.1,0.4-0.4,0.5c-0.1,0-0.2,0.1-0.4,0.1c-0.2,0-0.4,0-0.5,0
	h-0.3h-1.6c-1.3,0-2.9,0-4.5,0s-3,0-4.2,0H454c-0.5,0-1.2,0-1.3-0.8v-0.1c-0.1-0.4-0.1-1.1,0.2-1.3l0.4-0.4l0,0
	c0.2-0.1,0.4-0.1,0.6-0.1h0.2c0.1,0,0.3,0,0.4,0c0.2,0,0.3,0,0.5,0c0.6,0,1.1,0,1.7,0.1h1.3c0.5,0,1.1,0,1.8,0c1,0,2.1,0.1,2.8,0.1
	s1.2,0,1.9,0h0.2c0.3,0,0.8,0,1,0.2C466,16.8,466.1,17.4,466,18z"/>
<path class="st0" d="M507.5,16c0.4-1.5,0.3-3.1-0.2-4.6c-0.7-1.3-3.1-1.3-5.6-1.1h-0.6c-0.9,0-1.8,0.1-2.6,0.1c-2,0.2-4,0.2-6,0.1
	c-2.7-0.2-5.4-0.3-8.1-0.2c-1.2,0.1-5,0.1-5.8,0.1c-0.2,0-0.3,0.1-0.5,0.2c-0.1,0.1-0.2,0.3-0.2,0.4c0,0.2,0,0.4,0.1,0.6
	c0,0.6-0.1,1.2-0.1,1.7c-0.1,0.9-0.1,1.8-0.1,2.7c0,0.1,0,0.3,0,0.4c0,0.8,0.5,0.9,1,1c0,0.4,0,1,0.1,2c0,0.3,0,0.6,0,0.8
	c0,0.8,0,1.6,0,2.4s0,1.6,0,2.3c0,1.9-0.2,3.8-0.4,5.7c-0.3,2.2-0.4,4.5-0.4,6.7c0,1.4,0.2,2.8,0.3,4.2c0.1,1.6,0.3,3.3,0.3,4.9
	c0,1,0,2.2,0.1,3.3c0,0.1,0,0.2,0,0.3c0,0.4,0,0.8,0.1,1.2c0,0.1,0.1,0.2,0.1,0.3c0,0.4,0.4,0.6,0.8,0.6l0,0c0.1,0,0.3,0,0.4,0
	c0.5,0.1,1,0.1,1.5,0.1c0.9,0,1.8-0.1,2.7-0.1l0.8-0.1c1.1-0.1,2.3-0.1,3.3-0.1c0.8,0,1.7,0,2.5,0c2.4-0.1,4.8,0,7.1,0
	c1.3,0,2.6,0,3.9,0.1l0,0c1.3,0.1,2.5-0.1,3.8-0.3c1.5-0.4,1.3-1.6,1.2-2.5c-0.1-0.3-0.1-0.6-0.1-0.8c-0.1-1.5-0.2-3-0.4-4.4
	c-0.3-2.2-0.4-4.3-0.4-6.5s0.2-4.5,0.5-6.6c0.3-2.4,0.4-4.8,0.5-7.2c0-1-0.1-2.1-0.3-3.1c-0.2-1.2-0.3-2.5-0.2-3.7
	C507.1,16.6,507.4,16.3,507.5,16z M483.8,26.1c0-0.1,0-0.2,0-0.3V22c0-0.1,0-0.1,0.1-0.2l0.2-0.1c0.2-0.5,1.1-0.4,1.6-0.3h0.2
	c1,0.1,2.1,0.1,3.1,0h0.3c0.5,0,1.1-0.1,1.4,0.5c0.1,0.2,0.1,0.5,0.1,0.8v0.1v0.9c0,0.4,0,0.8,0,1.2c0,0.1,0,0.2,0,0.4
	c0.1,0.5,0,1.1-0.2,1.6c-0.2,0.2-0.4,0.3-0.7,0.3h-0.1c-0.6,0.1-1.2,0.1-1.8,0.2l-1.5,0.1l-0.4,0.1c-0.4,0.1-0.8,0.1-1.2,0.1
	c-0.3,0-0.6-0.1-0.8-0.3C483.8,27,483.7,26.5,483.8,26.1z M491.1,36.4c-1,0.3-2,0.5-3,0.5h-1c-0.2,0-0.4,0.1-0.6,0.1
	c-0.3,0.1-0.7,0.1-1,0.2c-0.4,0-0.8-0.2-1-0.6c-0.2-0.5-0.2-1.1-0.2-1.7c0-0.3,0-0.5,0-0.7s0-0.6,0-1c0.1-0.6,0-1.2-0.1-1.7
	c0-0.1,0-0.1,0-0.2v-0.1c0-0.1,0.1-0.1,0.2-0.1l0,0c1.9,0,3.7,0,5.5-0.1c0.5,0,0.8,0,1,0.2s0.2,0.5,0.2,0.9c0,0.1,0,0.3,0,0.5
	s0,0.6,0,0.9c-0.1,0.9,0,1.8,0.2,2.6C491.1,36.2,491.1,36.3,491.1,36.4L491.1,36.4z M494.4,23c0-0.1,0-0.2,0-0.3
	c0-0.5,0.1-0.9,0.2-1.4l0.1-0.1c0.6-0.2,1.2-0.3,1.8-0.4h0.5c0.4,0,0.9,0,1.3,0.1c0.1,0,0.3,0,0.4,0c0.4,0,0.7,0,1.1,0.1
	c0.4,0.2,0.6,0.5,0.6,0.9c0,0.1,0,0.2,0.1,0.3c0.3,1.1,0.4,2.2,0.2,3.4c0,0.1,0,0.2,0,0.3c0,0.5,0,0.9-0.7,1.1
	c-0.4,0.1-0.9,0.1-1.4,0.1H498h-0.8c-0.7,0-1.3,0-2-0.2c-0.5-0.2-0.6-0.6-0.7-1.1v-0.1C494.4,24.9,494.4,23.9,494.4,23z M500.4,36.4
	c-0.7,0.2-1.4,0.2-2.1,0.1c-0.3,0-0.6-0.1-0.9-0.1l0,0c-0.3,0-0.5,0-0.8,0.1s-0.7,0.1-1,0.1c-0.2,0-0.3,0-0.5-0.1
	c-0.6-0.2-0.6-0.8-0.7-1.2V35l0,0c-0.2-1.2-0.5-2.7,0.1-3.8c0-0.1,0.1-0.1,0.1-0.1c0.7-0.1,1.4-0.2,2.1-0.2c0.4,0,0.7,0,1.1,0.1
	c0.5,0.1,1,0.1,1.5,0.1h0.3c0.4-0.1,0.9,0,1.2,0.3c0.3,0.5,0.4,1.1,0.3,1.7c0,0.2,0,0.3,0,0.4v0.3C501.3,34.7,501.5,36,500.4,36.4
	L500.4,36.4z"/>
<path class="st0" d="M533.1,42.5c-0.1-0.1-0.2-0.2-0.3-0.3c-0.2-0.2-0.3-0.5-0.4-0.7c-0.1-0.2-0.2-0.4-0.3-0.7
	c-0.2-0.3-0.4-0.5-0.6-0.8c-0.3-0.4-0.7-0.9-0.7-1.2c0-0.2-0.1-0.3-0.2-0.4c-0.1-0.1-0.2-0.1-0.3-0.1c0.2-2.1,0.4-4.3,0.4-6.5h0.7
	c0.2,0,0.4-0.1,0.5-0.3c0.1-0.2,0.1-0.4,0-0.5c-0.3-0.5-0.8-1-1.3-1.5l-0.4-0.4c-0.8-0.8-1.7-1.6-2.6-2.3l-1.9-1.5
	c-0.2-0.1-0.4-0.3-0.6-0.4c-0.3-0.1-0.5-0.3-0.7-0.5c-0.1-0.1-0.2-0.2-0.4-0.3c-0.2,0-0.3,0-0.5,0.1l0,0h-0.1
	c-1.4,0.8-2.8,1.7-4.1,2.8l-1,0.7c-1.1,0.7-2.1,1.6-3,2.5c-0.2,0.2-0.3,0.3-0.5,0.5c-0.4,0.3-0.7,0.6-0.9,1
	c-0.1,0.2-0.1,0.5,0.1,0.7c0.3,0.2,0.6,0.4,1,0.3c0.3,0,0.7,0,1-0.1c0,0.1,0,0.2,0.1,0.3c-0.1,1.1-0.2,2.1-0.5,3.2
	c-0.1,0.5-0.2,0.9-0.2,1.1s0,0.2-0.1,0.3c-0.2,0.6-0.2,1.2-0.1,1.8c-0.2,0.3-0.5,0.6-0.7,0.9c-0.2,0.2-0.5,0.5-0.7,0.7
	s-0.3,0.4-0.5,0.7c-0.3,0.4-0.6,0.8-0.9,1.2c-0.2,0.2-0.2,0.6,0,0.8l0,0c0.7,0.5,1.6,0.7,2.5,0.6c0,0.2,0,0.5,0,0.7s0,0.4,0,0.6v0.8
	c0,0.6-0.1,1.2-0.1,1.8c0,0.2,0,0.4-0.1,0.5c-0.2,0.6-0.2,1.3,0,1.9c0.3,0.7,1.3,0.9,2.2,0.9c0.3,0,0.5,0,0.8,0h0.3
	c1.3,0,2.5-0.2,3.8-0.3c1.6-0.1,3.3-0.3,4.9-0.3l0,0c0.4,0,0.9,0,1.3,0.1c0.5,0.1,1.1,0.1,1.6,0.1c1,0,1.8-0.2,1.8-1.7
	c0-0.5,0-1.1-0.1-1.6c0-0.7-0.1-1.4,0-2.1v-0.2c0-0.4,0-0.8,0-1.2h0.8c0.5,0,0.9,0,1.3-0.1c0.3-0.1,0.4-0.3,0.4-0.6
	C533.7,43.2,533.5,42.8,533.1,42.5z M525.3,36.2c0,0.1,0,0.2,0,0.3c0,0.3-0.1,0.6-0.3,0.8c-0.3,0.2-0.7,0.3-1.1,0.2h-0.5l0,0H523
	h-0.5c-0.1,0-0.3,0-0.4-0.1c-0.3-0.1-0.4-0.2-0.4-0.5c0-0.1,0-0.2,0-0.3c-0.1-0.5-0.1-0.9,0-1.4c0-0.2,0-0.4,0-0.6
	c0-0.1,0.1-0.2,0.2-0.2l0,0h0.1c0.2-0.2,0.4-0.3,0.7-0.4c0.3-0.1,0.6-0.1,0.8,0h0.2h0.4c0.3,0,0.7,0,1,0c0.1,0,0.2,0.1,0.2,0.1
	C525.3,34.8,525.4,35.5,525.3,36.2z"/>
<path class="st0" d="M371.3,42.4c-0.1-0.1-0.2-0.2-0.3-0.3c-0.2-0.2-0.3-0.5-0.4-0.7s-0.2-0.4-0.4-0.7c-0.2-0.3-0.4-0.5-0.6-0.8
	c-0.3-0.4-0.7-0.9-0.7-1.2c0-0.2-0.1-0.3-0.2-0.4c-0.1-0.1-0.2-0.1-0.3-0.1c0.2-2.1,0.4-4.3,0.4-6.5h0.7c0.2,0,0.4-0.1,0.5-0.3
	c0.1-0.2,0.1-0.4,0-0.6c-0.3-0.5-0.8-1-1.3-1.5c-0.2-0.1-0.3-0.3-0.4-0.4c-0.8-0.8-1.7-1.6-2.6-2.3l0,0l-1.9-1.5
	c-0.2-0.2-0.4-0.3-0.6-0.4c-0.3-0.1-0.5-0.3-0.7-0.5c-0.1-0.1-0.2-0.2-0.4-0.3c-0.2,0-0.3,0-0.5,0.1l0,0h-0.1
	c-1.4,0.8-2.8,1.7-4.1,2.8l-1,0.7c-1.1,0.7-2.1,1.6-3,2.5c-0.2,0.2-0.3,0.3-0.5,0.5c-0.4,0.3-0.7,0.6-0.9,1
	c-0.1,0.2-0.1,0.5,0.1,0.7c0.3,0.2,0.6,0.4,1,0.3c0.3,0,0.7,0,1-0.1c0,0.1,0,0.2,0.1,0.3c-0.1,1.1-0.2,2.1-0.5,3.2
	c-0.1,0.5-0.2,0.9-0.2,1.1s0,0.2,0,0.3c-0.2,0.6-0.2,1.2-0.1,1.8c-0.2,0.3-0.5,0.6-0.8,0.9c-0.2,0.2-0.4,0.5-0.7,0.8
	s-0.3,0.4-0.5,0.6c-0.3,0.4-0.6,0.8-0.9,1.2c-0.1,0.1-0.2,0.3-0.2,0.4c0,0.2,0.1,0.3,0.2,0.4c0.7,0.5,1.6,0.7,2.5,0.6
	c0,0.2,0,0.5,0,0.7s0,0.4,0,0.6V46c0,0.6-0.1,1.3-0.1,1.9c0,0.1,0,0.3-0.1,0.5c-0.2,0.6-0.2,1.3,0,1.9c0.3,0.7,1.3,0.9,2.1,0.9h0.8
	h0.3c1.3,0,2.6-0.2,3.8-0.3c1.6-0.1,3.3-0.3,4.9-0.3l0,0c0.4,0,0.9,0,1.3,0.1c0.5,0.1,1.1,0.1,1.6,0.1c1,0,1.8-0.2,1.8-1.7
	c0-0.5,0-1.1-0.1-1.6c-0.1-0.7-0.1-1.4,0-2.1v-0.2c0-0.3,0-0.8,0-1.2h0.6c0.5,0,0.9,0,1.4-0.1c0.2-0.1,0.4-0.3,0.4-0.6
	C371.9,43.1,371.7,42.7,371.3,42.4z M363.5,36c0,0.1,0,0.2,0,0.3c0,0.3-0.1,0.6-0.3,0.8c-0.3,0.2-0.7,0.3-1.1,0.2h-0.5l0,0h-0.3
	c-0.2,0-0.4,0-0.5,0s-0.3,0-0.4-0.1c-0.3-0.1-0.4-0.2-0.4-0.5c0-0.1,0-0.2,0-0.3c-0.1-0.5-0.1-0.9,0-1.4c0-0.2,0-0.4,0-0.7
	c0-0.1,0.1-0.2,0.2-0.2l0,0h0.1c0.2-0.2,0.4-0.3,0.7-0.4c0.3,0,0.6,0,0.8,0h0.2h0.4c0.4,0,0.7,0,1,0c0.1,0,0.2,0.1,0.2,0.2
	C363.6,34.7,363.6,35.3,363.5,36z"/>
<path class="st0" d="M573,40.2c-1.1-1.6-3.2-2.5-5-3.4c-0.7-0.3-1.3-0.6-1.9-0.9l-4.7-2.6c-0.2-0.1-0.4-0.1-0.6,0
	c-1.4,0.8-2.6,1.8-3.7,2.9l-0.5,0.4c-0.4,0.3-0.8,0.7-1.3,1.1c-1.3,0.9-2.4,2.1-3.3,3.3c-0.1,0.2-0.1,0.4,0,0.6
	c0.1,0.2,0.3,0.3,0.5,0.3l0,0h1.5c0,1-0.1,2-0.1,3c0,0.5,0,1-0.1,1.5c0,0.2,0,0.4,0,0.7c-0.2,1.2-0.1,2.4,0.2,3.5V51
	c0,0.2,0,0.4,0.2,0.6c0.2,0.1,0.4,0.2,0.6,0.1c0.9-0.2,1.8-0.2,2.7,0h0.2c0.4,0,0.7,0.1,1.1,0.1c0.7,0,1.3-0.1,2-0.1
	c0.6-0.1,1.2-0.1,1.8-0.1c0.9,0,1.7-0.1,2.6-0.2c0.6,0,1.3-0.1,1.9-0.1c0.5,0,1,0,1.5,0.1c0.7,0.1,1.5,0.1,2.2,0
	c0.6-0.1,0.6-0.7,0.6-1.2s0-0.8-0.1-1.3s-0.1-1.2-0.1-1.6v-6c0.5,0,1,0,1.5-0.2c0.2-0.1,0.3-0.2,0.4-0.4
	C573.1,40.5,573.1,40.3,573,40.2z M566.4,50.9c0,0-0.1,0.1-0.2,0.1l0,0l-3.2-0.3c-0.1,0-0.2-0.1-0.2-0.2c-0.2-1.4-0.1-2.8,0.3-4.2
	c0.4-1.3,1.5-1.3,2.6-1.3h0.4c0.1,0,0.2,0.1,0.2,0.2c0.1,0.8,0.1,1.5,0,2.3c-0.2,1-0.1,2.1,0.2,3.1
	C566.5,50.8,566.5,50.9,566.4,50.9z"/>
<path class="st0" d="M600.9,33.9c-0.7-0.8-1.2-1.7-1.6-2.7c-0.7-1.7-1.4-3.4-3-3.7c-0.7-0.1-1.4,0-2.1,0.1c-0.3,0-0.6,0.1-0.8,0.1
	c-0.6,0-1.3,0.1-1.9,0.1s-1.2,0-1.8,0.1c-1.2,0-2.5,0-3.7-0.1h-1c-0.3,0-0.8,0-1,0.3s-0.9,1.2-1.2,1.8c-0.2,0.4-0.5,0.9-0.7,1.3
	c-0.2,0.5-0.4,0.9-0.7,1.3c0,0-0.1,0.2-0.2,0.3c-0.7,1-1.3,1.8-0.9,2.4c0.2,0.3,0.6,0.4,2,0.5l0,0c-0.3,1.4-0.4,2.8-0.2,4.3
	c0,0.5,0.1,1.1,0.1,1.5c0,1.1,0,2.1,0,3.2s0,2.1,0,3.1v1.9c0,0.2,0,0.3,0,0.5c0,0.8,0,1.3,1.2,1.6c0.8,0.2,1.6,0.3,2.5,0.3
	c1.3,0,2.7-0.1,4-0.3l1.3-0.1c1.2-0.1,2.4,0,3.5,0.2s2.3,0.3,3.5,0.2c0.3,0,0.6-0.3,0.5-0.6c0-1.7-0.1-3.4-0.2-5.1s-0.2-3.3-0.2-5
	c0-1.3-0.1-2.7-0.3-4c-0.1-0.6-0.2-1.1-0.3-1.6v-0.1c1-0.2,1.9-0.4,2.8-0.8c0.2-0.1,0.3-0.2,0.4-0.5C601.2,34.2,601.1,34,600.9,33.9
	z M591.5,41.4c-0.7,0.2-1.5,0.3-2.2,0.3c-0.5,0-1,0-1.4-0.2c-0.6-0.4-0.6-1.6-0.5-2.6c0-0.2,0-0.3,0-0.5c0-0.1,0.1-0.2,0.2-0.2
	c0.1,0,1.4-0.1,2-0.1l0,0c0.2,0,0.4,0,0.6-0.1c0.5-0.1,1-0.1,1.5,0c0.5,0.3,0.7,0.9,0.7,1.5C592.3,40.3,592,41,591.5,41.4z"/>
<path class="st0" d="M308.2,43c-0.6-3.3-1.6-13.2-1.8-16c0-0.2,0-0.4,0-0.6c0.1-1.2-0.2-2.4-0.7-3.5h1.4c0.6,0.1,1.2-0.1,1.6-0.5
	c0.4-0.6,0.6-1.4,0.4-2.1v-0.5c0-0.8-0.1-1.4-0.5-1.7s-0.9-0.3-1.7-0.3h-0.1c-0.5,0-1.1,0-1.6,0c0-0.7-0.1-1.5-0.2-2.2
	c-0.1-0.4-0.1-0.8-0.1-1.1c-0.1-1.3-0.2-2.5-0.2-3.8c0-1,0.1-2,0.2-2.9S305,5.9,305,5c0-0.2,0-0.3,0-0.5c0-1.3,0.1-3.1-0.5-4.1
	c-0.2-0.3-0.5-0.4-0.8-0.2l-0.1,0.1l-0.1,0.1c-0.1,0.1-0.2,0.3-0.2,0.4c-0.1,2.6-0.5,5.1-1.1,7.6c-0.4,1.9-0.8,3.8-1,5.7v0.1
	c-0.1,1.1-0.3,2.8-1,3.6c-0.1,0.1-0.2,0.2-0.2,0.4l-0.3,0.1h-0.3c-0.1,0-0.1,0-0.2,0l-0.5,0.1c-0.5,0.1-1.1,0.2-1.6,0.4
	c-0.3,0.1-0.4,0.4-0.3,0.7c0.1,0.3,0.2,0.7,0.2,1.1c0,0.5,0.1,1,0.3,1.5c0.5,1,1.2,1,2,1.1h0.1h0.7c-0.3,0.8-0.4,1.6-0.5,2.4
	c0,0.3-0.1,0.7-0.1,1c-0.2,1.2-0.4,2.4-0.5,3.6c-0.1,0.8-0.2,1.6-0.3,2.4c-0.1,0.8-0.3,1.7-0.4,2.5c-0.4,2.3-0.8,4.6-1,6.9
	c-0.3,2.7-0.4,5.1-0.5,7.5c0,0.1,0,0.2,0,0.4c-0.2,0.7,0.1,1.5,0.8,1.9c0.4,0.2,0.9,0.2,1.3,0.2c0.5,0,1,0,1.5-0.1
	c0.3,0,0.7-0.1,0.9-0.1c0.8,0,1.6,0,2.3,0c1.6-0.1,3.2-0.1,4.8,0.1c0.2,0,0.4,0,0.5-0.2c0.1-0.1,0.2-0.3,0.2-0.5
	c-0.1-0.7-0.1-1.6-0.1-2.6C308.7,46.7,308.5,44.9,308.2,43z M299.2,21.8c-0.8,0-0.8-0.1-1-0.4c-0.1-0.3-0.2-0.7-0.2-1.1
	c0-0.3,0-0.6-0.1-0.9c0.3-0.1,0.5-0.1,0.8-0.1l0.5-0.1h0.4c0.1,0,0.2,0,0.3,0c0.6-0.2,1.2-0.4,1.9-0.4h0.5c0.5,0,1,0,1.6,0h0.7
	c0.8,0,1.5,0.1,2.3,0h0.2c0.3,0,0.6,0,0.8,0c0.1,0.3,0.1,0.6,0.1,0.9v0.5c0,0.5,0.1,1.1-0.1,1.2s-0.2,0.2-0.7,0.2c-1,0-2,0-3,0.1
	C302.5,21.8,300.9,21.9,299.2,21.8L299.2,21.8z"/>
<path class="st0" d="M343.2,47.4c0-0.4-0.1-0.7-0.1-1c0-0.7,0-1.5,0-2.2s0-1.3,0-1.9c-0.1-3.9-0.2-8.4-0.7-12.6v-0.3
	c-0.2-1.5-0.4-3-1.4-3.5c-1.1-0.2-2.1-0.2-3.2,0c-0.5,0.1-1,0.1-1.6,0.1c-6.2-0.3-12.4-0.4-19.8-0.5c-0.1,0-0.3,0-0.4,0.1
	c-0.2,0-0.3,0.1-0.4,0.3c-0.4,1.1-0.5,2.3-0.3,3.5c0.1,0.5,0.1,1,0.1,1.5c0,1.1-0.1,2.2-0.1,3.3c0,0.7,0,1.4-0.1,2.1
	c-0.1,3.3-0.2,6.8-0.1,11.3c-0.1,1.1,0.2,2.2,0.9,3.2c0.1,0.1,0.1,0.2,0.2,0.3c0.1,0.3,0.4,0.4,0.7,0.4c0.1,0,0.2,0,0.3,0h0.3
	c0.4,0,0.8-0.1,1.3-0.2c0.3-0.1,0.6-0.1,0.9-0.1c3.2-0.2,6.5-0.2,9.6-0.1h3c1.1,0,2.2,0,3.3,0.1c1.6,0.1,3.2,0.1,4.8,0.1h0.4
	c0.4,0,0.7,0,1.1-0.1h0.3c0.5-0.1,0.8-0.2,1-0.8l0.1-0.3C343.4,49.3,343.4,48.3,343.2,47.4z M319.9,31.1c0-0.1,0-0.1,0-0.2
	s0.1-0.1,0.2-0.1l1.2,0.1c0.9-0.2,3.5-0.1,4,0.7c0.3,0.8,0.5,1.6,0.4,2.4c0,1.2-0.4,1.4-1.5,1.4h-0.4h-1.3c-1.2,0-2.2-0.1-2.5-0.5
	c-0.2-0.5-0.2-1,0-1.5c0-0.2,0.1-0.4,0.1-0.6C320.1,32.3,320,31.7,319.9,31.1z M325.9,42.3c-0.4,0.3-0.9,0.5-1.4,0.5
	c-0.9,0-1.7,0.1-2.6,0.3l-1.1,0.2l0,0h-0.1l-0.1-0.1c-0.1-0.5-0.1-1-0.3-1.5c-0.2-0.7-0.3-1.4-0.3-2.2c0-0.1,0-0.1,0.1-0.2l0.2-0.1
	v-0.1l0.1-0.1c0.6,0,1.2,0,1.8,0c0.7,0.1,1.3,0.1,2,0l0.4-0.1c0.5-0.1,0.9-0.2,1.2,0.1s0.3,0.5,0.4,1.1
	C326.4,40.9,326.3,41.6,325.9,42.3L325.9,42.3z M330.9,34.9c-0.1-1.2-0.2-2.4-0.1-3.6v-0.1c0-0.1,0-0.1,0.1-0.2l0.3-0.2l0,0
	c0.5-0.1,0.9-0.1,1.4,0s1,0.1,1.5,0c0.4-0.1,0.8-0.1,1.3-0.1c0.1,0,0.2,0.1,0.2,0.2c0,0.2,0,0.4,0,0.7c0.1,1.8,0.2,3.3-0.4,3.6
	c-0.2,0.1-0.3,0.1-0.5,0.1c-0.4,0-0.7-0.1-1.1-0.2c-0.2-0.1-0.4-0.1-0.6-0.1c-0.3,0-0.6,0-0.9,0s-0.7,0.1-1,0
	C331,35,331,35,330.9,34.9L330.9,34.9z M335.4,42.1c-0.4,0.1-0.9,0.2-1.4,0.2c-0.6,0-1.3-0.1-1.8-0.1l-1-0.1c-0.1,0-0.2-0.1-0.2-0.2
	c0-0.2,0-0.4,0-0.6c-0.1-0.7-0.1-1.5,0-2.2l0,0c0-0.1,0-0.2,0.1-0.3s0.1-0.1,0.2-0.1s0.1,0,0.2,0.1c1.3-0.4,2.6-0.6,4-0.5
	c0.1,0,0.2,0.1,0.2,0.2c0,0.4,0.1,0.8,0.2,1.2C336.2,40.6,336.5,41.7,335.4,42.1L335.4,42.1z"/>
<rect x="-0.2" y="50.5" class="st0" width="605.4" height="9.5"/>
</svg>
