<svg id="illust" xmlns="http://www.w3.org/2000/svg" viewBox="0 0 605 60"><defs><style>.cls-1{fill:#414d5e;}</style></defs><title>footerTop</title><path class="cls-1" d="M28.36,32.72c-.12-2-.25-4.18-.3-6.27a96.65,96.65,0,0,0-1.12-12.57l-.06-.43c-.15-1.09-.29-2.12-2.13-2.22s-3.93-.1-5.85-.09h-.26c-.94,0-1.93-.07-3-.15a21.28,21.28,0,0,0-6.73.24H8.32a.59.59,0,0,0-.57.44c-2,7.66-1.54,15.89-1.11,23.85v.22c.11,2,.15,4.11.2,6.12,0,1.84.08,3.75.17,5.62,0,.28,0,.67,0,1.09a6.68,6.68,0,0,0,.22,2.92c.54,1.12,2,.88,2.9.72a5.66,5.66,0,0,1,.79-.1c1.58,0,3.2.09,4.76.2s3,.2,4.48.2a23.64,23.64,0,0,0,3.35-.21l.36,0a8.89,8.89,0,0,0,2.85-.7c1.6-.82,1.68-3.18,1.73-4.9,0-.38,0-.75.06-1A86.62,86.62,0,0,0,28.36,32.72ZM10.44,21.06a2.66,2.66,0,0,1,0-1.16c0-.16,0-.31,0-.43v-.23a14.75,14.75,0,0,0,0-1.76c0-.15,0-.3-.05-.45a5.72,5.72,0,0,1-.07-1v0l.08-.28.06-.09a3,3,0,0,1,1.8-.15l.32,0H13a4,4,0,0,1,1.45.18c.48.21.46.57.45.9a.76.76,0,0,0,0,.15c0,.84,0,1.75,0,2.88,0,.11,0,.25,0,.4a2.12,2.12,0,0,1-.15,1.53.79.79,0,0,1-.54.28l-.47,0c-.41,0-.84,0-1.26-.08L12,21.68C11.45,21.64,10.62,21.59,10.44,21.06Zm4.8,10.72a3.94,3.94,0,0,1-2.61.75,3.48,3.48,0,0,1-.71-.06c-1-.24-1-1.62-1-2.21a12,12,0,0,0-.06-1.34,10.84,10.84,0,0,1-.06-1.61.24.24,0,0,1,.09-.15l.37-.24a.2.2,0,0,1,.11,0h2.2c.14,0,.37-.05.62-.09a2.56,2.56,0,0,1,1.36-.05,1.1,1.1,0,0,1,.53.79A7.24,7.24,0,0,1,15.24,31.78Zm3-10.83a2.38,2.38,0,0,1-.11-1c0-.15,0-.28,0-.37A17.32,17.32,0,0,1,18,17.22c0-.41.19-1.72.2-1.78a.18.18,0,0,1,.13-.15.19.19,0,0,1,.2,0c.15.13.65.09,1,.05a3.28,3.28,0,0,1,.61,0l.67,0a9.44,9.44,0,0,1,1.08.09c1.14.18,1.06,2.26,1,3.38v.34c0,.1,0,.21,0,.33,0,.65.07,1.53-.69,1.76a3.33,3.33,0,0,1-1,.12c-.32,0-.64,0-.94-.05l-.48,0h-.26C19.14,21.33,18.47,21.33,18.26,21ZM24,30.72a1.41,1.41,0,0,1-.46,1,1.73,1.73,0,0,1-1.14.32,7.31,7.31,0,0,1-.8,0,7.46,7.46,0,0,0-.79,0l-.37,0c-.88.08-1.37.09-1.58-.08s-.23-.59-.21-.88v-.17c0-.34,0-.69,0-1.06a12.67,12.67,0,0,1,.1-2.9.2.2,0,0,1,0-.08l.25-.31a.19.19,0,0,1,.21-.06.18.18,0,0,1,.13.15c.16.1.86.09,3.32-.52.25-.06.43-.11.53-.12a.19.19,0,0,1,.22.12A13.5,13.5,0,0,1,24,30.72Z"/><path class="cls-1" d="M94,49.37c0-.17,0-.33-.06-.44a51.72,51.72,0,0,1,0-5.84c0-1.11.08-2.27.08-3.41,0-.08,0-.22,0-.41.1-2.24,0-3.75-.64-4.29l0,0a6.11,6.11,0,0,0-.81-1.88,19,19,0,0,0-2.24-3l-.78-.92c-.5-.61-1-1.2-1.5-1.77s-1-1.15-1.46-1.73c-.29-.36-.56-.73-.84-1.13A15.7,15.7,0,0,0,84.51,23a.61.61,0,0,0-.64-.16.53.53,0,0,0-.23.16l-.08,0a.59.59,0,0,0-.24.47v0A8.2,8.2,0,0,1,82,25.33c-.27.31-.53.6-.75.89a36.74,36.74,0,0,0-2.09,3.06c-.37.57-.75,1.17-1.14,1.74a8.86,8.86,0,0,0-.64,1.16,8.24,8.24,0,0,1-.51.93,3.35,3.35,0,0,1-.31.4,4.08,4.08,0,0,0-.56.82,1.24,1.24,0,0,0,0,1.21,4.73,4.73,0,0,0-.41,2.65c0,.23,0,.43,0,.57,0,.4-.05.8-.07,1.2a39.29,39.29,0,0,0-.08,4.34c.07,1.35.11,2.74.14,4.07,0,1,0,2,.09,3a.57.57,0,0,0,.56.55c1.2.07,2.41.1,3.62.1,1.57,0,3.12,0,4.65-.08,1.87-.05,3.81-.1,5.71-.08l.78.06a6.06,6.06,0,0,0,2.21-.08.41.41,0,0,1,.16,0,.75.75,0,0,0,.61-.54l0-.11A3.75,3.75,0,0,0,94,49.37ZM82.12,43.9a4.39,4.39,0,0,1-2.19.35c-.48,0-.88,0-1,0a.19.19,0,0,1-.17-.19l-.07-3.79a.19.19,0,0,1,.18-.19,6.27,6.27,0,0,1,1.37.08,4.69,4.69,0,0,0,1.71,0,.19.19,0,0,1,.23.12C82.38,40.79,82.67,43.31,82.12,43.9ZM90,43.41c-.13.6-.65.73-1.18.73a6.26,6.26,0,0,1-.63,0l-.53,0h-.4a5.15,5.15,0,0,1-.87,0l-.32,0c-.4,0-.44-.15-.46-.54V43.3a9.38,9.38,0,0,1,.11-1.67,11,11,0,0,0,.12-1.4A.2.2,0,0,1,86,40l.76-.18a2.76,2.76,0,0,1,1.7-.13,3.66,3.66,0,0,0,1,0,.2.2,0,0,1,.22.13,2.8,2.8,0,0,1,.1,1c0,.11,0,.21,0,.32a4.75,4.75,0,0,0,.11.83A3.65,3.65,0,0,1,90,43.41Z"/><path class="cls-1" d="M67.21,34.4c0-.27-.26-.55-.82-1.2-.12-.14-.27-.32-.31-.38-.16-.23-.33-.45-.49-.65a7.75,7.75,0,0,1-.6-.85,4.75,4.75,0,0,1-.27-.62,2.44,2.44,0,0,0-1.07-1.54,7.5,7.5,0,0,0-3.34-.26c-.35,0-.68,0-.93,0H54.15c-.46,0-1.23,0-1.85-.05l-.69,0,0,0a.59.59,0,0,0-.74.19l-.51.71a37.12,37.12,0,0,0-2.56,3.92c-.14.26-.57,1.06-.16,1.66a1.4,1.4,0,0,0,1.25.49,7.41,7.41,0,0,0,.93-.07l.35,0A10.76,10.76,0,0,0,50,37.77c0,.37,0,.73,0,1a39.56,39.56,0,0,0,0,5v.26c0,.47,0,.94.07,1.39,0,.78.09,1.58.09,2.37V48a9.11,9.11,0,0,0,.35,3c.42,1,1.84,1.14,3,1.21a7.27,7.27,0,0,1,.78.08,8.48,8.48,0,0,0,1.23.09A20.72,20.72,0,0,0,58,52.17,19,19,0,0,1,60.2,52a8.72,8.72,0,0,1,1.12.09c1.15.14,2.46.29,3.27-.27s.68-1.61.59-2.31c0-.13,0-.26,0-.37-.11-1.46-.21-3-.22-4.56,0-.88.06-1.78.13-2.65a23.24,23.24,0,0,0,.09-3.83c0-.26-.06-.55-.1-.87a13.5,13.5,0,0,1-.15-1.58c1.23,0,1.84-.21,2.14-.56A.8.8,0,0,0,67.21,34.4ZM59.84,51.28a.2.2,0,0,1-.19.14h0l-4.33-.08a.19.19,0,0,1-.14-.07.16.16,0,0,1,0-.14c0-.48,0-1,0-1.45a9.33,9.33,0,0,1,.09-2.17l.09-.42A8.26,8.26,0,0,0,55.5,46a1.85,1.85,0,0,0,0-.25,1.66,1.66,0,0,1,.1-.72c.25-.46.75-.4,1.12-.36l.17,0c.28,0,.57,0,.85,0a8.15,8.15,0,0,1,1,.05c.57.06.62.19.59.68v.11a10,10,0,0,0,.22,2.53,12.3,12.3,0,0,1,.28,2.18,1.59,1.59,0,0,0,0,.29A1.88,1.88,0,0,1,59.84,51.28Z"/><path class="cls-1" d="M123,19.91c0-.81,0-1.64,0-2.46,0-.24,0-.56,0-.89.06-1.34.14-3-.4-3.95s-2-1-3.86-1.11l-.63,0a28.82,28.82,0,0,0-3.35,0,28.47,28.47,0,0,1-3.2,0l-1.1-.1a30.92,30.92,0,0,0-4.22-.2l-.43,0a6.32,6.32,0,0,0-3.66.89.55.55,0,0,0-.23.44c0,.08-.24,8.43-.2,13.09,0,2.05.06,4.14.09,6.16,0,2.74.1,5.58.11,8.37,0,1,0,2.13,0,3.16s0,2,0,3c0,.72,0,1.43.07,2.12l0,.56a4.52,4.52,0,0,1,0,.55,2.89,2.89,0,0,0,.15,1.86c.47.68,1.68.62,3.48.45a9.59,9.59,0,0,1,1-.07l1.6.08c1.1.06,2.24.12,3.38.12s2.05,0,3.05,0c2,0,4.06-.07,6,0h.21l.42,0a1.31,1.31,0,0,0,1.31-.81,4.28,4.28,0,0,0,.2-2.18c0-.22,0-.42,0-.58,0-.92,0-1.86,0-2.76,0-1.41,0-2.87,0-4.29,0-5.83.22-11.68.47-17.65C123.06,22.45,123,21.16,123,19.91Zm-4.64,10.24a.86.86,0,0,1-.38.07l-.49,0-.22,0-.8,0-.68,0c-.84,0-2.14,0-3.29,0l-1.78,0c-.62,0-1.25,0-1.86,0s-1.26,0-1.89,0h-.31a.9.9,0,0,1-.7-.12.77.77,0,0,1-.19-.55c0-.22,0-.44,0-.65s0-.53,0-.81a.2.2,0,0,1,.2-.19h.4a6.17,6.17,0,0,1,1.73-.18h.63c.65,0,1.3,0,1.94,0H112l1.49,0c1.29,0,2.75-.09,3.71-.08l.29,0a1.44,1.44,0,0,1,.68,0,.49.49,0,0,1,.36.51s0,.06,0,.1V28C118.68,29,118.77,29.91,118.34,30.15Zm0-5.56a1.4,1.4,0,0,1-.41.05,6,6,0,0,1-.73-.07c-.17,0-.33-.06-.47-.07-.43,0-.87,0-1.3,0h-.66c-.91,0-4,0-5.83,0l-.4,0a13.94,13.94,0,0,0-1.71,0l-.25.06a1.33,1.33,0,0,1-.86.06c-.59-.32-.2-2.28-.19-2.3a0,0,0,0,1,0,0l.06-.13s0-.05,0-.06a.19.19,0,0,1,0-.18.19.19,0,0,1,.2-.08,22.72,22.72,0,0,0,4.1.39l.73,0c1.19,0,3.54,0,4.83,0l.71,0a12,12,0,0,0,2.18-.15.21.21,0,0,1,.17,0,.18.18,0,0,1,.06.15,4.44,4.44,0,0,0,.07.63C118.8,23.56,118.92,24.42,118.34,24.59ZM118.9,18c-.07.3-.18.48-.35.55a1,1,0,0,1-.37.06,5.11,5.11,0,0,1-.55,0l-.3,0-1.62,0c-1.29,0-2.9,0-4.46,0s-3,0-4.17,0h-.2c-.51,0-1.22,0-1.32-.8v-.09c-.06-.42-.16-1.11.21-1.31l.41-.37,0,0a.84.84,0,0,1,.62-.06l.22,0a3.42,3.42,0,0,0,.44,0,3.9,3.9,0,0,1,.5,0c.56,0,1.12,0,1.66.06L111,16c.47,0,1.11,0,1.8,0,1,0,2.12.06,2.84.06s1.24,0,1.88,0h.17a1.47,1.47,0,0,1,1,.24A2.26,2.26,0,0,1,118.9,18Z"/><path class="cls-1" d="M190.92,42.47a2,2,0,0,1-.25-.26,5.14,5.14,0,0,1-.42-.74c-.11-.22-.22-.44-.35-.65a7,7,0,0,0-.59-.79c-.34-.41-.73-.87-.72-1.21a.58.58,0,0,0-.18-.44.6.6,0,0,0-.26-.14,56.76,56.76,0,0,0,.36-6.46l.72,0a.56.56,0,0,0,.48-.28.54.54,0,0,0,0-.55,6.59,6.59,0,0,0-1.27-1.45l-.43-.42a24.24,24.24,0,0,0-2.62-2.32l-1.94-1.49a5.6,5.6,0,0,0-.64-.4,2.12,2.12,0,0,1-.73-.53.56.56,0,0,0-.4-.25.59.59,0,0,0-.46.13l0,0-.08,0A29.69,29.69,0,0,0,177.06,27l-1,.74a18.65,18.65,0,0,0-3,2.54,6,6,0,0,1-.5.45,3.59,3.59,0,0,0-.94,1,.58.58,0,0,0,.11.68,1.34,1.34,0,0,0,1,.32,5.23,5.23,0,0,0,1-.11.61.61,0,0,0,.07.35,20,20,0,0,1-.49,3.19c-.1.5-.18.9-.2,1.11s0,.19-.06.32a4.36,4.36,0,0,0-.08,1.83,5.27,5.27,0,0,1-.74.91,8.2,8.2,0,0,0-.66.74c-.17.22-.32.44-.46.65a7.42,7.42,0,0,1-.93,1.15.58.58,0,0,0-.18.41.53.53,0,0,0,.16.41,3.37,3.37,0,0,0,2.52.56,5.47,5.47,0,0,0,0,.7,4.66,4.66,0,0,1,0,.61l0,.76c0,.62-.07,1.24-.11,1.87a4.41,4.41,0,0,1-.06.54,3.59,3.59,0,0,0,0,1.93c.32.73,1.25.86,2.15.86l.8,0,.25,0c1.27,0,2.56-.15,3.8-.25,1.63-.13,3.32-.27,4.95-.27.43,0,.86,0,1.31.07a14.41,14.41,0,0,0,1.62.08c1,0,1.81-.17,1.81-1.7,0-.54,0-1.08-.07-1.6,0-.72-.08-1.4,0-2.1l0-.2c0-.36,0-.76,0-1.17h.64a5.32,5.32,0,0,0,1.35-.11.56.56,0,0,0,.42-.56A1.57,1.57,0,0,0,190.92,42.47Zm-7.78-6.32c0,.11,0,.21,0,.31a1.07,1.07,0,0,1-.3.8,1.53,1.53,0,0,1-1.12.19,4.18,4.18,0,0,0-.51,0l-.35,0-.54,0a1.42,1.42,0,0,1-.44-.06c-.33-.13-.42-.2-.43-.48a1,1,0,0,0,0-.27,6,6,0,0,1,0-1.41c0-.22,0-.44,0-.64a.19.19,0,0,1,.2-.19h.14a1.72,1.72,0,0,1,.65-.37,2.29,2.29,0,0,1,.83,0h.19l.44,0c.35,0,.71,0,1.05,0a.2.2,0,0,1,.19.14A7.35,7.35,0,0,1,183.14,36.15Z"/><path class="cls-1" d="M204.73,41.12a2.16,2.16,0,0,0,1.2-2.23,2.71,2.71,0,0,0-1.71-2.24v0a3.46,3.46,0,0,0-.19-2.88,4.58,4.58,0,0,0-3.61-1.84,3.34,3.34,0,0,0-3.15,1.25,2.29,2.29,0,0,0-.64,2.25,3.37,3.37,0,0,0-.49.2,3,3,0,0,0-1.51,1.82,2.62,2.62,0,0,0,.26,2.07,2.4,2.4,0,0,0,.87.8,2.33,2.33,0,0,0-.64,2.45,3.92,3.92,0,0,0,2.17,2.46l.12,0c.21,0,1.15.11,2.23.17,0,.37,0,.74.05,1.11a6.74,6.74,0,0,1-.09,1.17c-.12,1.07-.27,2.28.27,3.05a.58.58,0,0,0,.48.25.64.64,0,0,0,.33-.1.58.58,0,0,0,.16-.81,4.33,4.33,0,0,1-.07-2.25,8.63,8.63,0,0,0,.09-1.37c0-.33,0-.66-.05-1l.89,0a7.5,7.5,0,0,0,1.41-.1c.59-.13,2.4-.52,2.52-2.33A1.77,1.77,0,0,0,204.73,41.12Z"/><path class="cls-1" d="M230.85,40.2c-1.08-1.58-3.18-2.55-5-3.41-.69-.32-1.34-.62-1.88-.93l-4.72-2.64a.59.59,0,0,0-.56,0,17.92,17.92,0,0,0-3.75,2.91l-.47.44c-.37.35-.8.7-1.26,1.08A13.6,13.6,0,0,0,209.94,41a.57.57,0,0,0,0,.58.61.61,0,0,0,.51.28h0l1.48,0c0,1-.07,2-.12,3l-.09,1.54c0,.2,0,.44,0,.69a8.1,8.1,0,0,0,.23,3.53l-.07.33a.57.57,0,0,0,.2.56.6.6,0,0,0,.59.1,6.2,6.2,0,0,1,2.68,0l.2,0a8.48,8.48,0,0,0,1.11.07,18.64,18.64,0,0,0,2-.14c.59-.06,1.2-.12,1.8-.13.88,0,1.74-.09,2.59-.17.62,0,1.26-.11,1.89-.14a11.78,11.78,0,0,1,1.54.08,9.69,9.69,0,0,0,2.22,0c.59-.09.57-.72.56-1.15s0-.78-.08-1.25-.09-1.2-.09-1.61v-6a4.92,4.92,0,0,0,1.48-.17.6.6,0,0,0,.37-.36A.57.57,0,0,0,230.85,40.2Zm-6.62,10.7a.21.21,0,0,1-.16.08h0l-3.25-.31a.19.19,0,0,1-.17-.16,10.73,10.73,0,0,1,.31-4.15c.36-1.32,1.46-1.29,2.62-1.25h.37a.19.19,0,0,1,.19.17,12.09,12.09,0,0,1,0,2.32,7.26,7.26,0,0,0,.16,3.1A.18.18,0,0,1,224.23,50.9Z"/><path class="cls-1" d="M258.77,33.9a7.7,7.7,0,0,1-1.58-2.74c-.7-1.67-1.43-3.39-3-3.69a6.06,6.06,0,0,0-2.07.11c-.29.05-.57.09-.8.11-.63,0-1.27.07-1.89.09s-1.21,0-1.82.08a34,34,0,0,1-3.73-.06l-1-.05c-.32,0-.78,0-.94.33s-.9,1.23-1.24,1.81a12.74,12.74,0,0,0-.67,1.33c-.21.45-.41.87-.65,1.28,0,0-.12.16-.19.26-.74,1-1.28,1.81-.88,2.43.22.33.62.41,2,.52h0a12.9,12.9,0,0,0-.19,4.25c0,.55.06,1.08.06,1.52,0,1.06,0,2.13.05,3.17s0,2.09,0,3.14v1.88c0,.18,0,.33,0,.46,0,.77,0,1.33,1.17,1.61a10.31,10.31,0,0,0,2.41.25,35,35,0,0,0,4-.31l1.33-.14a15.58,15.58,0,0,1,3.52.2,18.76,18.76,0,0,0,3.45.23.57.57,0,0,0,.55-.57c0-1.67-.06-3.41-.16-5.09s-.2-3.33-.16-5a29.5,29.5,0,0,0-.33-4c-.08-.57-.18-1.13-.26-1.59l0-.07a17.38,17.38,0,0,0,2.83-.77.56.56,0,0,0,.36-.45A.55.55,0,0,0,258.77,33.9Zm-9.47,7.54a6.81,6.81,0,0,1-2.24.29,3.65,3.65,0,0,1-1.42-.19c-.6-.36-.56-1.6-.53-2.59,0-.18,0-.34,0-.47a.25.25,0,0,1,0-.12l.09-.11a.21.21,0,0,1,.05-.12c.09-.1.19-.2.31-.31a.19.19,0,0,1,.26,0,.2.2,0,0,1,0,.26l0,.07a5.26,5.26,0,0,0,1.06,0h.42a4.77,4.77,0,0,0,.63-.07,3,3,0,0,1,1.45,0,1.62,1.62,0,0,1,.68,1.5A2.1,2.1,0,0,1,249.3,41.44Z"/><path class="cls-1" d="M288.48,43.94l0-.09a31.14,31.14,0,0,1-.4-7c0-.65,0-1.33,0-2,0-3.18-.19-6.39-.37-9.48-.17-2.85-.34-5.8-.37-8.7,0-.74,0-1.5-.1-2.23-.06-.92-.12-1.88-.1-2.78a.55.55,0,0,0-.18-.44.61.61,0,0,0-.45-.16c-1.09.08-3.65.11-6.13.13-1.91,0-3.72,0-4.69.08-2.51.11-7.74-.08-7.8-.08a.58.58,0,0,0-.59.48,15.58,15.58,0,0,0-.14,3.3c0,.46,0,.9,0,1.35,0,1.16,0,2.34.1,3.48s.11,2,.11,3-.08,2.29-.16,3.42a38.64,38.64,0,0,0-.15,4.32c0,1.07.12,2.14.2,3.17a43.23,43.23,0,0,1,.22,5.1c0,.65-.05,1.31-.08,2a82.33,82.33,0,0,0,0,8.75v.12a1.61,1.61,0,0,0,.84,1.59,2.25,2.25,0,0,0,1,.19,11.11,11.11,0,0,0,1.19-.08l.66,0c1.23,0,2.47-.08,3.66-.16s2.37-.15,3.56-.15h0c.72,0,1.44,0,2.15,0,1.32,0,2.68,0,4,0,.55,0,1.1.09,1.63.15a17.12,17.12,0,0,0,2.61.15.57.57,0,0,0,.56-.55A26.26,26.26,0,0,0,288.48,43.94ZM271.07,18.51a.17.17,0,0,1,0-.18,4.2,4.2,0,0,0,.25-1.4,3.75,3.75,0,0,1,.16-1.06.18.18,0,0,1,.21-.12.19.19,0,0,1,.17.19v0c.83-.61,2.4-.61,3.59-.62h.69c1.05,0,2.12,0,3.16,0,.72,0,1.47,0,2.2,0h.42c.74,0,1.11,0,1.37.93a1.59,1.59,0,0,1,0,1.28,1.46,1.46,0,0,1-1,.56,13.72,13.72,0,0,1-3.29.13c-.65,0-1.27,0-1.85,0s-1.45.09-2.16.14c-1,.08-2.11.17-3.17.17h-.53A.19.19,0,0,1,271.07,18.51Zm.74,4.69.68-.2c.4-.41,1.16-.34,1.83-.27a6.89,6.89,0,0,0,.72.05l1.32-.1c.66-.05,1.34-.1,2-.11l.55,0c1.29,0,3.07-.1,3.77.8a1.73,1.73,0,0,1,.15,1.63c-.29,1-2.09,1-3.4,1h-.9c-.7,0-1.39-.07-2.07-.13a16.22,16.22,0,0,0-2.51-.11,3.06,3.06,0,0,0-.7.12c-.57.13-.94.17-1.35-.73a3.21,3.21,0,0,1-.24-1.33c0-.15,0-.27,0-.37A.17.17,0,0,1,271.81,23.2Zm11.3,8.38c-.5.45-1.29.37-2.21.28h-.14a11.31,11.31,0,0,0-2.68.16,15.61,15.61,0,0,1-2.08.19H276a15.62,15.62,0,0,1-2.06-.19c-.56-.07-1.14-.15-1.71-.18a.18.18,0,0,1-.18-.16c0-.15-.08-.34-.13-.53a2.4,2.4,0,0,1-.08-1.64.16.16,0,0,1,.07-.07l.29-.19a.49.49,0,0,1,.21-.15v0a.24.24,0,0,1,.05-.14.22.22,0,0,1,.15-.06c1.2,0,2.41,0,3.58,0,.92,0,1.87-.06,2.81-.06.49,0,1,0,1.44.06s1,.05,1.54.05h.34c.5,0,.84,0,1.07.21a1.35,1.35,0,0,1,.26,1A1.92,1.92,0,0,1,283.11,31.58Z"/><path class="cls-1" d="M546.88,41.12a2.16,2.16,0,0,0,1.2-2.23,2.7,2.7,0,0,0-1.72-2.24v0a3.46,3.46,0,0,0-.19-2.88,4.59,4.59,0,0,0-3.61-1.84,3.32,3.32,0,0,0-3.15,1.25,2.27,2.27,0,0,0-.64,2.25,4,4,0,0,0-.5.2,3,3,0,0,0-1.5,1.82A2.62,2.62,0,0,0,537,39.5a2.36,2.36,0,0,0,.88.8,2.33,2.33,0,0,0-.64,2.45,3.92,3.92,0,0,0,2.17,2.46l.12,0c.21,0,1.15.11,2.23.17,0,.37,0,.74.05,1.11a6.74,6.74,0,0,1-.09,1.17,4.62,4.62,0,0,0,.27,3.05.58.58,0,0,0,.48.25.67.67,0,0,0,.33-.1.57.57,0,0,0,.15-.81,4.35,4.35,0,0,1-.06-2.25,8.63,8.63,0,0,0,.09-1.37c0-.33,0-.66,0-1l.89,0a7.5,7.5,0,0,0,1.41-.1c.59-.13,2.39-.52,2.52-2.33A1.79,1.79,0,0,0,546.88,41.12Z"/><path class="cls-1" d="M386.77,41.12a2.15,2.15,0,0,0,1.2-2.23,2.71,2.71,0,0,0-1.71-2.24v0a3.46,3.46,0,0,0-.19-2.88,4.58,4.58,0,0,0-3.61-1.84,3.32,3.32,0,0,0-3.15,1.25,2.26,2.26,0,0,0-.63,2.25,3.07,3.07,0,0,0-.5.2,3,3,0,0,0-1.51,1.82,2.62,2.62,0,0,0,.26,2.07,2.4,2.4,0,0,0,.87.8,2.31,2.31,0,0,0-.63,2.45,3.88,3.88,0,0,0,2.16,2.46l.12,0c.21,0,1.15.11,2.23.17,0,.37,0,.74.05,1.11a6.74,6.74,0,0,1-.09,1.17c-.12,1.07-.27,2.28.27,3.05a.59.59,0,0,0,.48.25.64.64,0,0,0,.33-.1.58.58,0,0,0,.16-.81,4.33,4.33,0,0,1-.07-2.25,7.59,7.59,0,0,0,.09-1.37c0-.33,0-.66,0-1l.89,0a7.5,7.5,0,0,0,1.41-.1c.59-.13,2.4-.52,2.52-2.33A1.77,1.77,0,0,0,386.77,41.12Z"/><path class="cls-1" d="M43.53,41.12a2.16,2.16,0,0,0,1.19-2.23A2.69,2.69,0,0,0,43,36.65v0a3.46,3.46,0,0,0-.19-2.88,4.6,4.6,0,0,0-3.62-1.84,3.32,3.32,0,0,0-3.14,1.25,2.27,2.27,0,0,0-.64,2.25,3.47,3.47,0,0,0-.5.2,3,3,0,0,0-1.51,1.82,2.66,2.66,0,0,0,.26,2.07,2.4,2.4,0,0,0,.87.8,2.33,2.33,0,0,0-.63,2.45,3.92,3.92,0,0,0,2.17,2.46l.12,0c.33,0,2.61.25,4.28.25a7.43,7.43,0,0,0,1.41-.1c.6-.13,2.4-.52,2.53-2.33A1.79,1.79,0,0,0,43.53,41.12Z"/><path class="cls-1" d="M39.15,51a.61.61,0,0,1-.49-.25,4.69,4.69,0,0,1-.26-3.05,9.56,9.56,0,0,0,.09-1.17c-.07-1.33-.14-2.7-.16-4a.59.59,0,0,1,1.18,0c0,1.3.08,2.65.15,4a8.74,8.74,0,0,1-.1,1.37,4.33,4.33,0,0,0,.07,2.25.58.58,0,0,1-.15.81A.67.67,0,0,1,39.15,51Z"/><path class="cls-1" d="M163.93,29.28a15.19,15.19,0,0,1-.24-1.55l-.09-.62s0-.22,0-.36c-.06-1-.1-1.23-.29-1.43-.37-.39-1.11-.36-2.11-.28l-.34,0H157.9c-.44,0-.9,0-1.38,0a17.36,17.36,0,0,0-2.6,0c0-.81,0-1.62-.07-2.41s-.09-1.82-.09-2.72c0-.15,0-.38.05-.63a4.44,4.44,0,0,0-.09-2c-.44-1-1.78-.95-2.67-.92h-.54l-1.29-.06c-1.15-.06-2.34-.12-3.52-.13l-.55,0a5.6,5.6,0,0,0-3,.32c-1.24.77-.95,3-.75,4.6.05.38.09.7.1.92s0,.4,0,.61a23.34,23.34,0,0,1,0,2.76c-.82.08-2.52.23-3.41.2-.64,0-1.29-.09-2-.17a17.79,17.79,0,0,0-3.09-.16c-.86.06-1.13.18-1.39,1a1.54,1.54,0,0,1-.05.17,7.92,7.92,0,0,0-.41,1.8,20.8,20.8,0,0,0,.09,3.86c.07.84.14,1.7.14,2.5,0,2.35-.15,4.72-.29,7s-.3,4.72-.3,7.11c0,.1,0,.24,0,.37,0,.61-.1,1.45.53,1.86a2.32,2.32,0,0,0,1.45.11l.33,0h0c1.18,0,2.37-.09,3.52-.17l1.2-.08c2.62-.17,5.32-.11,7.93-.06,1.31,0,2.67.06,4,.06h.62c2.07,0,4.22,0,6.31.08.61,0,1.23.08,1.89.15a24.85,24.85,0,0,0,2.59.18,8.47,8.47,0,0,0,1.13-.07l.25,0c.84-.06.94-.48,1-1.17a5.73,5.73,0,0,0,0-1.17c0-.24,0-.47,0-.69l.06-1.15c0-1.1.11-2.24.11-3.39,0-2.62,0-6.07.32-9.4A15.25,15.25,0,0,0,163.93,29.28Zm-23,10.58a1.76,1.76,0,0,1-1.26.34l-.63,0h-.53c-1,0-2.3,0-2.6-.7a3.5,3.5,0,0,1,0-1.07,4.79,4.79,0,0,0,0-.61,3.21,3.21,0,0,1,.1-1.33.09.09,0,0,1,0,0l.25-.33a.19.19,0,0,1,.22-.07,1.84,1.84,0,0,0,.78,0,2.8,2.8,0,0,1,.51,0,4.86,4.86,0,0,1,1.16.22l.48.12.21.05c1.1.24,1.71.37,1.71,1.88A2.08,2.08,0,0,1,140.9,39.86Zm0-7.17a1.76,1.76,0,0,1-1.26.34L139,33h-.53c-1,0-2.3,0-2.6-.69a3.55,3.55,0,0,1,0-1.08,4.71,4.71,0,0,0,0-.61,3.17,3.17,0,0,1,.1-1.32.05.05,0,0,1,0,0l.25-.34a.2.2,0,0,1,.22-.06,1.84,1.84,0,0,0,.78,0,4.18,4.18,0,0,1,.51,0,4.86,4.86,0,0,1,1.16.21c.16,0,.32.09.48.12l.21.05c1.1.24,1.71.38,1.71,1.88A2.07,2.07,0,0,1,140.9,32.69Zm12.36-3.33a.2.2,0,0,1,.13-.09l.42-.09h.11a7.72,7.72,0,0,0,1.89.24,13,13,0,0,1,1.63.15l.38,0a1.47,1.47,0,0,1,1.08.37,2.88,2.88,0,0,1-.13,2.2c-.38.46-1.66.62-2.82.62a8,8,0,0,1-2-.2c-.81-.27-.8-.65-.79-1.18a3.36,3.36,0,0,0,0-.45,2.33,2.33,0,0,0,0-.37A1.9,1.9,0,0,1,153.26,29.36Zm-7.36-9.29c.74-1,2.77-.88,3.72-.28A3.41,3.41,0,0,1,151,23.35a2.38,2.38,0,0,1-1.17,1.79,3,3,0,0,1-1.36.31,3.63,3.63,0,0,1-2.69-1.2C144.75,23.11,144.81,21.59,145.9,20.07Zm-1.76,10a7.24,7.24,0,0,0,.08-.82.19.19,0,0,1,.14-.19l.24-.07h0a.19.19,0,0,1,.17-.09h0c1.13,0,2.29.08,3.41.15l1.77.11a.2.2,0,0,1,.18.17c0,.19.1.48.17.78a3.45,3.45,0,0,1,.19,2c-.34.75-1.69.65-2.68.58l-.62,0c-.19,0-.42,0-.67,0a7.61,7.61,0,0,1-1,.08,1.43,1.43,0,0,1-1.33-.56A3.79,3.79,0,0,1,144.14,30.11Zm0,7.17a7.39,7.39,0,0,0,.08-.83.18.18,0,0,1,.14-.18l.24-.07h0a.19.19,0,0,1,.17-.1c1.13,0,2.29.08,3.41.16l1.77.11a.18.18,0,0,1,.18.17c0,.19.1.47.17.77a3.45,3.45,0,0,1,.19,2c-.34.75-1.69.66-2.68.59-.25,0-.46,0-.62,0l-.67.06c-.31,0-.64.07-1,.07a1.43,1.43,0,0,1-1.33-.55A3.79,3.79,0,0,1,144.14,37.28Zm7.23,12.51a.21.21,0,0,1-.13.05h-7.08a.17.17,0,0,1-.14-.06,3.57,3.57,0,0,1-.55-2.45c0-.24,0-.47,0-.67s0-.2,0-.28c-.05-.56-.05-.79.64-1.08a5.36,5.36,0,0,1,2.28-.19l.71,0c.53,0,1.05,0,1.56.08s.85.07,1.27.08h.4c.59,0,1.15,0,1.22,1a4.1,4.1,0,0,1-.05.86,3.93,3.93,0,0,0,0,1c0,.11.05.22.08.35C151.62,49,151.74,49.49,151.37,49.79Zm7.4-10.43c-.38.46-1.66.61-2.82.61a8,8,0,0,1-2-.2c-.81-.27-.8-.65-.79-1.18a3.22,3.22,0,0,0,0-.44,2.33,2.33,0,0,0,0-.38,1.9,1.9,0,0,1,.15-1.25.2.2,0,0,1,.13-.09l.42-.08a.14.14,0,0,1,.11,0,7.72,7.72,0,0,0,1.89.24,11.32,11.32,0,0,1,1.63.15l.38,0a1.39,1.39,0,0,1,1.08.37A2.89,2.89,0,0,1,158.77,39.36Z"/><path class="cls-1" d="M147,23.12a1.6,1.6,0,0,1,.37,0c.12,0,.26,0,.41,0a1.24,1.24,0,0,0,.73-.2c.53-.38.34-1.87.22-2.09a.58.58,0,0,0-1.07.46,3.39,3.39,0,0,1,0,.67l-.2,0a1.94,1.94,0,0,0-.89.05.58.58,0,0,0-.34.75A.58.58,0,0,0,147,23.12Z"/><path class="cls-1" d="M441.07,49.37c0-.17-.05-.33-.06-.44a54.18,54.18,0,0,1,0-5.84c0-1.11.08-2.27.08-3.41,0-.08,0-.22,0-.41.09-2.24,0-3.75-.65-4.29l0,0a6.25,6.25,0,0,0-.8-1.88,19,19,0,0,0-2.24-3c-.28-.32-.54-.62-.78-.92-.5-.61-1-1.2-1.51-1.78s-1-1.14-1.46-1.72c-.29-.36-.55-.73-.83-1.13A15.82,15.82,0,0,0,431.59,23a.6.6,0,0,0-.63-.16.63.63,0,0,0-.24.16l-.07,0a.59.59,0,0,0-.24.47v0a8.52,8.52,0,0,1-1.36,1.8c-.28.31-.53.6-.76.89a36.74,36.74,0,0,0-2.09,3.06c-.37.57-.75,1.17-1.13,1.74a7.9,7.9,0,0,0-.65,1.16,8.2,8.2,0,0,1-.5.93c-.09.13-.2.26-.31.4a4.12,4.12,0,0,0-.57.82,1.26,1.26,0,0,0,0,1.21,4.82,4.82,0,0,0-.41,2.65c0,.23,0,.43,0,.57l-.06,1.2a39.3,39.3,0,0,0-.09,4.34c.07,1.35.11,2.74.14,4.07,0,1,.05,2,.1,3a.57.57,0,0,0,.55.55c1.21.07,2.42.1,3.63.1,1.56,0,3.11,0,4.64-.08,1.87-.05,3.81-.1,5.71-.08l.78.06a6.06,6.06,0,0,0,2.21-.08.45.45,0,0,1,.17,0,.73.73,0,0,0,.6-.54l.05-.11A3.63,3.63,0,0,0,441.07,49.37ZM429.2,43.9a4.34,4.34,0,0,1-2.18.35c-.49,0-.89,0-1,0a.19.19,0,0,1-.16-.19l-.08-3.79A.19.19,0,0,1,426,40a6.36,6.36,0,0,1,1.38.08,4.63,4.63,0,0,0,1.7,0,.19.19,0,0,1,.23.12C429.46,40.79,429.75,43.31,429.2,43.9Zm7.88-.49c-.13.6-.65.73-1.18.73a6.06,6.06,0,0,1-.62,0l-.54,0h-.4a5,5,0,0,1-.86,0l-.32,0c-.41,0-.45-.15-.46-.54,0-.05,0-.11,0-.19a9.38,9.38,0,0,1,.11-1.67,11,11,0,0,0,.12-1.4.19.19,0,0,1,.15-.19l.75-.18a2.78,2.78,0,0,1,1.71-.13,3.59,3.59,0,0,0,1,0,.19.19,0,0,1,.22.13,2.45,2.45,0,0,1,.1,1v.32a4.87,4.87,0,0,0,.12.83A3.62,3.62,0,0,1,437.08,43.41Z"/><path class="cls-1" d="M414.3,34.4c-.05-.27-.26-.55-.82-1.2a4.6,4.6,0,0,1-.32-.38c-.16-.23-.33-.45-.49-.65a9.39,9.39,0,0,1-.6-.85,4.84,4.84,0,0,1-.26-.62,2.49,2.49,0,0,0-1.08-1.54,7.5,7.5,0,0,0-3.34-.26c-.35,0-.68,0-.93,0h-5.23c-.46,0-1.23,0-1.85-.05l-.68,0,0,0a.61.61,0,0,0-.75.19l-.5.71a35.7,35.7,0,0,0-2.57,3.92c-.14.26-.57,1.06-.15,1.66a1.39,1.39,0,0,0,1.24.49,7.41,7.41,0,0,0,.93-.07l.36,0a10.76,10.76,0,0,0-.14,2.05c0,.37,0,.73,0,1a39.56,39.56,0,0,0,0,5v.26c0,.47.05.94.07,1.39.05.78.09,1.58.1,2.37V48a8.84,8.84,0,0,0,.34,3c.42,1,1.85,1.14,3,1.21a7.27,7.27,0,0,1,.78.08,8.73,8.73,0,0,0,1.24.09,20.55,20.55,0,0,0,2.5-.22,19,19,0,0,1,2.2-.21,8.59,8.59,0,0,1,1.12.09c1.16.14,2.46.29,3.28-.27s.67-1.61.58-2.31c0-.13,0-.26,0-.37-.1-1.46-.21-3-.22-4.56,0-.88.07-1.78.14-2.65a24.4,24.4,0,0,0,.08-3.83c0-.26-.06-.55-.1-.87a11.54,11.54,0,0,1-.14-1.58c1.22,0,1.83-.21,2.13-.56A.8.8,0,0,0,414.3,34.4Zm-7.38,16.88a.2.2,0,0,1-.19.14h0l-4.33-.08a.21.21,0,0,1-.14-.07.24.24,0,0,1-.05-.14,14,14,0,0,0,0-1.45,9.93,9.93,0,0,1,.1-2.17c0-.14.05-.28.08-.42a10.36,10.36,0,0,0,.19-1.09v-.25a1.66,1.66,0,0,1,.1-.72c.25-.46.76-.4,1.13-.36l.17,0c.27,0,.56,0,.84,0a8.15,8.15,0,0,1,1,.05c.57.06.62.19.59.68v.11a9.57,9.57,0,0,0,.22,2.53,13.37,13.37,0,0,1,.27,2.18c0,.09,0,.18,0,.29A1.88,1.88,0,0,1,406.92,51.28Z"/><path class="cls-1" d="M470.07,19.91c0-.81-.05-1.64-.05-2.46,0-.24,0-.56,0-.89.06-1.34.13-3-.4-3.95s-2-1-3.87-1.11l-.62,0a29,29,0,0,0-3.36,0,28.47,28.47,0,0,1-3.2,0l-1.1-.1a30.92,30.92,0,0,0-4.22-.2l-.43,0a6.33,6.33,0,0,0-3.66.89.58.58,0,0,0-.23.44c0,.08-.24,8.43-.19,13.09,0,2.05.05,4.14.09,6.16.05,2.74.09,5.58.1,8.37,0,1,0,2.13,0,3.16s-.05,2-.05,3c0,.72,0,1.43.08,2.12,0,.19,0,.37,0,.56a3.11,3.11,0,0,1,0,.55,3,3,0,0,0,.15,1.86c.47.68,1.69.62,3.48.45a9.59,9.59,0,0,1,1-.07l1.61.08c1.1.06,2.23.12,3.37.12s2,0,3,0c2,0,4.06-.07,6,0h.21l.42,0a1.31,1.31,0,0,0,1.31-.81,4.17,4.17,0,0,0,.2-2.18c0-.22,0-.42,0-.58,0-.92,0-1.86-.05-2.77,0-1.4-.05-2.86-.05-4.28,0-5.83.22-11.68.47-17.65C470.15,22.45,470.11,21.16,470.07,19.91Zm-4.65,10.24a.81.81,0,0,1-.38.07l-.49,0-.22,0-.8,0-.67,0c-.84,0-2.15,0-3.3,0l-1.78,0c-.62,0-1.25,0-1.85,0s-1.27,0-1.9,0h-.31A.9.9,0,0,1,453,30a.73.73,0,0,1-.18-.55c0-.22,0-.44,0-.65s0-.53,0-.81a.19.19,0,0,1,.19-.19h.4a6.2,6.2,0,0,1,1.74-.18h.62c.65,0,1.3,0,1.94,0H459l1.49,0c1.29,0,2.76-.09,3.71-.08h0l.29,0a1.44,1.44,0,0,1,.68,0,.52.52,0,0,1,.36.51s0,.06,0,.1l0,.07C465.76,29,465.85,29.91,465.42,30.15Zm0-5.56a1.36,1.36,0,0,1-.41.05,5.66,5.66,0,0,1-.72-.07c-.18,0-.34-.06-.48-.07-.43,0-.87,0-1.3,0h-.66c-.91,0-4,0-5.82,0l-.4,0a14.1,14.1,0,0,0-1.72,0l-.25.06a1.33,1.33,0,0,1-.86.06c-.58-.32-.2-2.28-.19-2.3s0,0,0,0l.06-.13,0-.07a.15.15,0,0,1,0-.17.2.2,0,0,1,.2-.08,22.8,22.8,0,0,0,4.1.39l.73,0c1.2,0,3.54,0,4.84,0l.71,0a11.93,11.93,0,0,0,2.17-.15.21.21,0,0,1,.17,0,.23.23,0,0,1,.07.15,4.22,4.22,0,0,0,.06.63C465.88,23.56,466,24.42,465.42,24.59ZM466,18a.68.68,0,0,1-.35.55,1,1,0,0,1-.37.06,5.11,5.11,0,0,1-.55,0l-.3,0-1.62,0c-1.29,0-2.9,0-4.45,0s-3,0-4.18,0H454c-.51,0-1.21,0-1.32-.8v-.09c-.06-.42-.15-1.11.21-1.31l.41-.37,0,0a.84.84,0,0,1,.62-.06l.22,0a3.27,3.27,0,0,0,.44,0,4,4,0,0,1,.5,0c.56,0,1.12,0,1.66.06L458,16c.47,0,1.12,0,1.8,0,1.05,0,2.13.06,2.84.06s1.24,0,1.88,0h.17c.34,0,.8,0,1,.24A2.21,2.21,0,0,1,466,18Z"/><path class="cls-1" d="M507.49,16a8.29,8.29,0,0,0-.22-4.55c-.71-1.28-3.14-1.26-5.57-1.12l-.62,0c-.9,0-1.79.08-2.65.12a42.23,42.23,0,0,1-5.95.06,59.74,59.74,0,0,0-8.06-.2c-1.2.06-5,.15-5.78.11a.58.58,0,0,0-.45.17.55.55,0,0,0-.17.44,1.87,1.87,0,0,0,.09.55c0,.57-.07,1.16-.12,1.74a16,16,0,0,0-.11,2.68,2.62,2.62,0,0,1,0,.4c0,.8.45.91,1,1,0,.4,0,1,.06,2,0,.34,0,.64,0,.8,0,.79,0,1.59.05,2.36s.05,1.56.05,2.34c0,1.89-.18,3.83-.36,5.7a53.22,53.22,0,0,0-.35,6.7c0,1.42.17,2.83.3,4.21.14,1.6.3,3.26.31,4.89,0,1,0,2.17.1,3.35,0,.08,0,.18,0,.29a3.54,3.54,0,0,0,.13,1.19c.05.14.08.23.1.3a.68.68,0,0,0,.79.58,3.15,3.15,0,0,1,.41,0,13.13,13.13,0,0,0,1.54.08c.88,0,1.78-.06,2.66-.12l.82-.06c1.12-.07,2.25-.08,3.34-.1.83,0,1.68,0,2.53,0,2.37-.1,4.78-.05,7.11,0,1.26,0,2.57.05,3.86.06h0a14.7,14.7,0,0,0,3.78-.33c1.52-.43,1.33-1.62,1.19-2.5a7.22,7.22,0,0,1-.11-.83c-.08-1.47-.23-3-.38-4.4a58.77,58.77,0,0,1-.43-6.49c0-2.21.24-4.46.46-6.64a70.57,70.57,0,0,0,.46-7.17,25.44,25.44,0,0,0-.25-3.12,17.93,17.93,0,0,1-.2-3.73A1.53,1.53,0,0,0,507.49,16ZM483.8,26.09c0-.11,0-.2,0-.28V22a.19.19,0,0,1,.1-.17l.19-.09c.19-.47,1.07-.36,1.6-.29l.17,0a23.4,23.4,0,0,0,3.08,0l.27,0c.47,0,1.12-.11,1.41.46a1.82,1.82,0,0,1,.1.77.71.71,0,0,0,0,.14v.86c0,.4,0,.79,0,1.19,0,.1,0,.22,0,.37a3,3,0,0,1-.18,1.59.84.84,0,0,1-.69.32h-.14c-.6.08-1.22.12-1.81.16l-1.49.12-.4.07a6.79,6.79,0,0,1-1.2.15,1.08,1.08,0,0,1-.81-.25A2,2,0,0,1,483.8,26.09Zm7.27,10.27a7.75,7.75,0,0,1-3,.46l-1,0a5.54,5.54,0,0,0-.65.14,4.75,4.75,0,0,1-1,.17,1,1,0,0,1-1-.57,4.56,4.56,0,0,1-.16-1.67c0-.26,0-.5,0-.67s0-.6,0-.95a4.41,4.41,0,0,0-.13-1.74.18.18,0,0,1,0-.21.14.14,0,0,1,0-.09.18.18,0,0,1,.18-.13h0c1.88,0,3.72,0,5.48-.11.5,0,.78,0,.95.2s.2.51.18.93c0,.14,0,.3,0,.48s0,.57,0,.88a9,9,0,0,0,.16,2.62A.19.19,0,0,1,491.07,36.36ZM494.44,23c0-.09,0-.18,0-.27a3.49,3.49,0,0,1,.21-1.36.21.21,0,0,1,.13-.1,10,10,0,0,1,1.75-.35l.45,0c.44,0,.89.05,1.34.06a3.24,3.24,0,0,0,.43,0,2.76,2.76,0,0,1,1.11.08,1.14,1.14,0,0,1,.65.93c0,.09.05.18.08.26a8.55,8.55,0,0,1,.22,3.38c0,.12,0,.23,0,.34,0,.46,0,.94-.71,1.1a6.78,6.78,0,0,1-1.35.12l-.73,0h-.78a6.32,6.32,0,0,1-2-.19c-.51-.18-.6-.65-.69-1.1l0-.07A12.15,12.15,0,0,1,494.44,23Zm6,13.44a5,5,0,0,1-2.12.06,8,8,0,0,0-.93-.07h0a5.33,5.33,0,0,0-.78.09,8,8,0,0,1-1,.11,1.49,1.49,0,0,1-.45-.06c-.58-.21-.65-.77-.7-1.23l0-.27,0-.1c-.19-1.15-.45-2.72.11-3.82a.21.21,0,0,1,.15-.11,17.58,17.58,0,0,1,2.15-.16c.37,0,.73,0,1.08.07a14.93,14.93,0,0,0,1.51.09h.31a1.39,1.39,0,0,1,1.2.28,2.9,2.9,0,0,1,.34,1.72c0,.18,0,.33,0,.44l0,.25C501.33,34.65,501.47,36,500.4,36.39Z"/><path class="cls-1" d="M533.07,42.47a1.5,1.5,0,0,1-.25-.26,4.34,4.34,0,0,1-.42-.74c-.11-.22-.22-.44-.35-.65a8.53,8.53,0,0,0-.59-.79c-.35-.41-.73-.87-.72-1.21a.58.58,0,0,0-.18-.44.6.6,0,0,0-.26-.14,56.76,56.76,0,0,0,.36-6.46l.71,0a.58.58,0,0,0,.49-.28.54.54,0,0,0,0-.55,6.59,6.59,0,0,0-1.27-1.45l-.43-.42a24.24,24.24,0,0,0-2.62-2.32l-1.94-1.49a5.6,5.6,0,0,0-.64-.4,2.12,2.12,0,0,1-.73-.53.56.56,0,0,0-.4-.25.57.57,0,0,0-.46.13l0,0-.07,0A29.1,29.1,0,0,0,519.21,27l-1,.74a18.65,18.65,0,0,0-3,2.54,6,6,0,0,1-.5.45,3.59,3.59,0,0,0-.94,1,.58.58,0,0,0,.1.68,1.37,1.37,0,0,0,1,.32,5.33,5.33,0,0,0,1-.11.61.61,0,0,0,.07.35,21.18,21.18,0,0,1-.49,3.19c-.1.5-.18.9-.2,1.11s0,.19-.06.32a4.2,4.2,0,0,0-.08,1.83,5.27,5.27,0,0,1-.74.91,6.92,6.92,0,0,0-.66.74c-.17.22-.32.44-.47.65a7.37,7.37,0,0,1-.92,1.15.56.56,0,0,0,0,.82,3.35,3.35,0,0,0,2.51.56c0,.23,0,.47,0,.7a4.66,4.66,0,0,1,0,.61l0,.78c0,.61-.07,1.23-.11,1.85a4.72,4.72,0,0,1-.07.54,3.8,3.8,0,0,0,0,1.93c.33.73,1.26.86,2.16.86.27,0,.55,0,.8,0h.25c1.27,0,2.55-.15,3.8-.25,1.62-.13,3.29-.27,4.91-.27h0c.43,0,.86,0,1.31.07a14.41,14.41,0,0,0,1.62.08c.95,0,1.81-.17,1.81-1.7,0-.54,0-1.08-.07-1.6,0-.72-.08-1.4-.05-2.1v-.2c0-.36,0-.76,0-1.17H532a5.37,5.37,0,0,0,1.35-.11.57.57,0,0,0,.42-.56A1.6,1.6,0,0,0,533.07,42.47Zm-7.79-6.32c0,.11,0,.21,0,.31a1.12,1.12,0,0,1-.3.8,1.53,1.53,0,0,1-1.12.19l-.5,0h0l-.35,0-.54,0a1.42,1.42,0,0,1-.44-.06c-.33-.13-.42-.2-.43-.48a1,1,0,0,0,0-.27,6.61,6.61,0,0,1,0-1.41c0-.22,0-.44,0-.64a.19.19,0,0,1,.2-.19h.14a1.65,1.65,0,0,1,.65-.37,2.29,2.29,0,0,1,.83,0h.19l.44,0c.35,0,.71,0,1,0a.2.2,0,0,1,.19.14A7.37,7.37,0,0,1,525.28,36.15Z"/><path class="cls-1" d="M371.32,42.36a1.5,1.5,0,0,1-.25-.26,4,4,0,0,1-.42-.74c-.11-.21-.22-.43-.35-.65a7.36,7.36,0,0,0-.6-.78c-.34-.41-.73-.88-.71-1.22a.58.58,0,0,0-.18-.43.51.51,0,0,0-.26-.14,59.49,59.49,0,0,0,.36-6.47l.71,0a.6.6,0,0,0,.49-.28.59.59,0,0,0,0-.56,6.56,6.56,0,0,0-1.27-1.45c-.16-.15-.32-.3-.43-.42a25.36,25.36,0,0,0-2.62-2.32l0,0-1.91-1.47a3.84,3.84,0,0,0-.63-.39,2,2,0,0,1-.73-.54.63.63,0,0,0-.41-.25.64.64,0,0,0-.46.13l0,0-.07,0a29.86,29.86,0,0,0-4.09,2.75l-1,.73a19,19,0,0,0-3,2.54,6,6,0,0,1-.5.45,3.59,3.59,0,0,0-.94,1,.57.57,0,0,0,.1.68,1.37,1.37,0,0,0,1,.33,5.36,5.36,0,0,0,1-.12.53.53,0,0,0,.07.35,22.34,22.34,0,0,1-.49,3.19c-.1.5-.18.9-.21,1.11s0,.2-.05.33a4.16,4.16,0,0,0-.08,1.82,5,5,0,0,1-.75.91c-.21.23-.44.46-.66.75s-.31.43-.46.64a6.93,6.93,0,0,1-.92,1.15.56.56,0,0,0-.19.41.59.59,0,0,0,.17.42,3.4,3.4,0,0,0,2.51.56c0,.22,0,.46,0,.69a4.8,4.8,0,0,1,0,.62l0,.73c0,.63-.07,1.26-.11,1.89,0,.14,0,.33-.07.54a3.59,3.59,0,0,0,0,1.93c.33.73,1.26.86,2.15.86l.8,0h.25c1.27,0,2.56-.15,3.81-.26,1.61-.13,3.28-.27,4.91-.27h0c.44,0,.87,0,1.32.08a14.22,14.22,0,0,0,1.62.07c.95,0,1.81-.17,1.8-1.7,0-.54,0-1.08-.06-1.6a18.51,18.51,0,0,1-.05-2.1v-.2c0-.35,0-.76,0-1.16h.63a5.94,5.94,0,0,0,1.36-.11.59.59,0,0,0,.42-.56A1.62,1.62,0,0,0,371.32,42.36ZM363.53,36c0,.11,0,.22,0,.31a1.06,1.06,0,0,1-.29.8,1.5,1.5,0,0,1-1.12.19l-.51,0h0l-.34,0a5.07,5.07,0,0,1-.55,0,1.15,1.15,0,0,1-.43-.06c-.33-.12-.43-.2-.43-.48,0-.06,0-.15,0-.27a6.51,6.51,0,0,1,0-1.4c0-.23,0-.44,0-.65a.18.18,0,0,1,.19-.19h.14a1.89,1.89,0,0,1,.66-.37,2.52,2.52,0,0,1,.83,0h.19l.44,0c.35,0,.71,0,1.05,0a.19.19,0,0,1,.19.15A7.28,7.28,0,0,1,363.53,36Z"/><path class="cls-1" d="M573,40.2c-1.08-1.58-3.18-2.55-5-3.41-.69-.32-1.34-.62-1.89-.93l-4.71-2.64a.61.61,0,0,0-.57,0,17.6,17.6,0,0,0-3.74,2.91l-.47.44c-.38.35-.8.7-1.26,1.08A13.6,13.6,0,0,0,552.09,41a.57.57,0,0,0,0,.58.61.61,0,0,0,.5.28h0l1.48,0c0,1-.07,2-.13,3,0,.51-.05,1-.08,1.54,0,.2,0,.44,0,.69a8.1,8.1,0,0,0,.23,3.53L554,51a.57.57,0,0,0,.2.56.58.58,0,0,0,.58.1,6.24,6.24,0,0,1,2.69,0l.2,0a8.27,8.27,0,0,0,1.11.07,18.64,18.64,0,0,0,2-.14c.59-.06,1.2-.12,1.8-.13.87,0,1.74-.09,2.58-.17.63,0,1.27-.11,1.9-.14a11.78,11.78,0,0,1,1.54.08,9.61,9.61,0,0,0,2.21,0c.6-.09.58-.72.57-1.15s0-.78-.08-1.25-.09-1.2-.09-1.61v-6a4.82,4.82,0,0,0,1.47-.17.59.59,0,0,0,.38-.36A.6.6,0,0,0,573,40.2Zm-6.62,10.7a.21.21,0,0,1-.16.08h0L563,50.67a.21.21,0,0,1-.18-.16,10.73,10.73,0,0,1,.32-4.15c.36-1.32,1.46-1.29,2.62-1.25h.37a.19.19,0,0,1,.19.17,12.09,12.09,0,0,1,0,2.32,7.26,7.26,0,0,0,.16,3.1A.18.18,0,0,1,566.38,50.9Z"/><path class="cls-1" d="M600.92,33.9a7.7,7.7,0,0,1-1.58-2.74c-.7-1.67-1.43-3.39-3-3.69a6.06,6.06,0,0,0-2.07.11c-.3.05-.57.09-.81.11-.62,0-1.26.07-1.88.09s-1.21,0-1.83.08a34,34,0,0,1-3.73-.06l-1-.05c-.32,0-.78,0-.95.33s-.9,1.23-1.23,1.81a12.74,12.74,0,0,0-.67,1.33c-.21.45-.41.87-.65,1.28,0,0-.12.16-.19.26-.74,1-1.28,1.81-.88,2.43.22.33.62.41,2,.52h0a13.16,13.16,0,0,0-.2,4.25c0,.55.07,1.08.07,1.52,0,1.06,0,2.13,0,3.17s.05,2.09.05,3.14v1.88c0,.18,0,.33,0,.46,0,.77,0,1.33,1.16,1.61A10.45,10.45,0,0,0,586,52a35,35,0,0,0,4-.31l1.33-.14a15.61,15.61,0,0,1,3.52.2,18.7,18.7,0,0,0,3.45.23.57.57,0,0,0,.55-.57c0-1.67-.06-3.41-.16-5.09s-.2-3.33-.17-5a28.11,28.11,0,0,0-.32-4c-.09-.57-.18-1.13-.27-1.59v-.07a17,17,0,0,0,2.82-.77.56.56,0,0,0,.37-.45A.57.57,0,0,0,600.92,33.9Zm-9.47,7.54a6.81,6.81,0,0,1-2.24.29,3.62,3.62,0,0,1-1.42-.19c-.6-.36-.56-1.6-.53-2.59,0-.18,0-.34,0-.47a.19.19,0,0,1,.18-.19c.06,0,1.37-.11,2-.11h0a5,5,0,0,0,.63-.07,3,3,0,0,1,1.45,0,1.62,1.62,0,0,1,.68,1.5A2.15,2.15,0,0,1,591.45,41.44Z"/><path class="cls-1" d="M308.2,43.05c-.64-3.27-1.62-13.17-1.76-16,0-.19,0-.38,0-.59a7.42,7.42,0,0,0-.68-3.54l1.4,0a2,2,0,0,0,1.59-.52,2.67,2.67,0,0,0,.39-2.1l0-.47c0-.8-.06-1.38-.46-1.74s-.88-.32-1.69-.28h-.12c-.53,0-1.08,0-1.65,0a14.05,14.05,0,0,0-.23-2.21c-.06-.39-.12-.75-.15-1.07a35.55,35.55,0,0,1-.19-3.78c0-1,.08-2,.16-2.92s.16-1.9.16-2.86c0-.16,0-.34,0-.53,0-1.32.07-3.12-.51-4.1a.58.58,0,0,0-.92-.12l-.11.1a.58.58,0,0,0-.17.41,37.17,37.17,0,0,1-1.1,7.6,54.19,54.19,0,0,0-1,5.74v.12c-.1,1.06-.28,2.83-1,3.57a.7.7,0,0,0-.17.37l-.31.11-.32,0a.41.41,0,0,0-.19,0l-.53.09a4.88,4.88,0,0,0-1.57.42.59.59,0,0,0-.27.71,4.23,4.23,0,0,1,.16,1.07,4,4,0,0,0,.27,1.46c.45,1,1.16,1,2,1.06h.11l.73,0a10.88,10.88,0,0,0-.51,2.4,10.27,10.27,0,0,1-.15,1c-.24,1.19-.38,2.39-.51,3.56-.09.78-.19,1.58-.31,2.37s-.27,1.71-.41,2.55c-.37,2.25-.76,4.59-1,6.89-.26,2.65-.43,5.1-.51,7.48,0,.11,0,.24,0,.38a1.62,1.62,0,0,0,.76,1.9,2.87,2.87,0,0,0,1.3.22c.45,0,1,0,1.54-.09.34,0,.66-.06.85-.06.82,0,1.59,0,2.32,0a26.47,26.47,0,0,1,4.77.12.62.62,0,0,0,.49-.15.6.6,0,0,0,.18-.47c-.06-.68-.1-1.61-.14-2.59A46.23,46.23,0,0,0,308.2,43.05Zm-9-21.23c-.81,0-.82-.06-1-.38a3.4,3.4,0,0,1-.17-1.06c0-.28,0-.57-.08-.85a7.6,7.6,0,0,1,.77-.14l.49-.08.37,0a.51.51,0,0,0,.3,0,6.62,6.62,0,0,1,1.88-.41h.45c.45,0,1,0,1.62,0l.72,0c.75,0,1.53.06,2.26,0H307a5.56,5.56,0,0,1,.83,0,5.72,5.72,0,0,1,.09.92l0,.49c0,.53.07,1.09-.08,1.24s-.2.16-.73.16c-1,0-2,0-3,.07-1.59.05-3.23.11-4.83,0Z"/><path class="cls-1" d="M343.2,47.44c0-.36-.08-.7-.1-1,0-.73,0-1.48,0-2.21s0-1.26,0-1.9c-.11-3.93-.24-8.39-.74-12.64l0-.25c-.16-1.52-.41-3-1.42-3.45a7.12,7.12,0,0,0-3.2,0,10.66,10.66,0,0,1-1.57.14c-6.24-.25-12.43-.38-19.81-.5a.61.61,0,0,0-.37.12.57.57,0,0,0-.4.29,6,6,0,0,0-.28,3.48,10.86,10.86,0,0,1,.1,1.53c0,1.11-.09,2.23-.13,3.31,0,.69-.05,1.38-.07,2.07-.13,3.28-.17,6.76-.11,11.28a4.77,4.77,0,0,0,.86,3.17,2.77,2.77,0,0,1,.21.29.74.74,0,0,0,.69.39,2,2,0,0,1,.3,0l.33,0a7.61,7.61,0,0,0,1.25-.15,6,6,0,0,1,.85-.12c3.19-.18,6.47-.16,9.64-.14h3c1.11,0,2.23,0,3.31.09,1.57.07,3.19.13,4.81.06h.41a6.9,6.9,0,0,0,1.11-.07l.31,0c.51-.07.83-.16.95-.79l.07-.29A7.11,7.11,0,0,0,343.2,47.44ZM319.88,31.15a.19.19,0,0,1,0-.18.25.25,0,0,1,.18-.08l1.23.11c.92-.17,3.46-.09,4,.68a5.44,5.44,0,0,1,.42,2.41c0,1.2-.39,1.4-1.53,1.43h-.36l-1.33,0c-1.19,0-2.22-.1-2.5-.55a2.54,2.54,0,0,1,0-1.5,4.77,4.77,0,0,0,.08-.6A6.78,6.78,0,0,0,319.88,31.15Zm6,11.1a1.86,1.86,0,0,1-1.41.46,13.18,13.18,0,0,0-2.59.34l-1.12.22h0a.16.16,0,0,1-.12,0,.18.18,0,0,1-.08-.13,14.39,14.39,0,0,0-.26-1.46,9.56,9.56,0,0,1-.3-2.18.2.2,0,0,1,.12-.18l.2-.08a.23.23,0,0,1,0-.14.23.23,0,0,1,.14-.08,17.2,17.2,0,0,1,1.76,0,10.6,10.6,0,0,0,2,0l.4-.06c.53-.09.91-.15,1.19.07s.34.51.39,1.11A2.91,2.91,0,0,1,325.89,42.25Zm5-7.33a30.19,30.19,0,0,1-.14-3.58v-.15a.22.22,0,0,1,.09-.16l.32-.21,0,0a3.57,3.57,0,0,1,1.39-.05,4.33,4.33,0,0,0,1.52-.05,4.18,4.18,0,0,1,1.27-.08.2.2,0,0,1,.16.19c0,.18,0,.44.05.74.14,1.8.21,3.31-.39,3.64a1,1,0,0,1-.51.11,5.2,5.2,0,0,1-1.07-.18A3.6,3.6,0,0,0,333,35a5.38,5.38,0,0,0-.9,0,5.28,5.28,0,0,1-1,.05A.19.19,0,0,1,330.93,34.92Zm4.53,7.21a3.85,3.85,0,0,1-1.36.19c-.6,0-1.26-.06-1.84-.12l-1-.08a.19.19,0,0,1-.19-.18c0-.19,0-.41,0-.64a7.93,7.93,0,0,1,0-2.24v0a.33.33,0,0,1,.08-.29.3.3,0,0,1,.2-.1.21.21,0,0,1,.17.08,12,12,0,0,1,4-.51.2.2,0,0,1,.18.2,5.48,5.48,0,0,0,.2,1.19C336.21,40.59,336.46,41.71,335.46,42.13Z"/><rect class="cls-1" x="-0.2" y="50.54" width="605.41" height="9.46"/></svg>