<?xml version="1.0" encoding="utf-8"?>
<!-- Generator: Adobe Illustrator 23.0.0, SVG Export Plug-In . SVG Version: 6.00 Build 0)  -->
<svg version="1.1" id="레이어_1" xmlns="http://www.w3.org/2000/svg" xmlns:xlink="http://www.w3.org/1999/xlink" x="0px"
	 y="0px" viewBox="0 0 70 70" style="enable-background:new 0 0 70 70;" xml:space="preserve">
<style type="text/css">
	.st0{fill:#FFFFFF;}
	.st1{fill:#81B49E;}
</style>
<circle class="st0" cx="35" cy="35" r="34"/>
<title>icon</title>
<g>
	<path class="st1" d="M53.4,51.1c-1,1.3-2.3,2.3-3.8,2.9c-1.5,0.7-3.1,1-4.9,1c-2.4,0-4.5-0.5-6.5-1.5c-1.9-1-4.1-2.8-6.6-5.4
		c-2.9-0.4-5.5-1.3-7.8-2.8c-2.3-1.5-4-3.4-5.3-5.8c-1.3-2.4-1.9-5-1.9-7.9c0-3.1,0.8-6,2.3-8.5c1.5-2.5,3.6-4.5,6.3-5.9
		c2.7-1.4,5.7-2.2,9-2.2s6.3,0.7,9,2.2c2.7,1.4,4.7,3.4,6.3,5.9c1.5,2.5,2.3,5.4,2.3,8.5c0,3.7-1,7-3.1,9.8
		c-2.1,2.8-4.9,4.8-8.3,5.9c0.8,0.8,1.5,1.4,2.2,1.7c0.7,0.4,1.5,0.5,2.3,0.5c2,0,3.7-0.8,5.2-2.4L53.4,51.1z M25.5,36.9
		c0.9,1.6,2.1,2.8,3.6,3.6c1.5,0.9,3.2,1.3,5.1,1.3c1.9,0,3.6-0.4,5.1-1.3c1.5-0.9,2.7-2.1,3.6-3.6c0.9-1.6,1.3-3.3,1.3-5.3
		c0-2-0.4-3.8-1.3-5.3c-0.9-1.6-2.1-2.8-3.6-3.6c-1.5-0.9-3.2-1.3-5.1-1.3c-1.9,0-3.6,0.4-5.1,1.3c-1.5,0.9-2.7,2.1-3.6,3.6
		c-0.9,1.6-1.3,3.3-1.3,5.3C24.2,33.6,24.6,35.3,25.5,36.9z"/>
</g>
</svg>
