<?xml version="1.0" encoding="utf-8"?>
<!-- Generator: Adobe Illustrator 23.0.0, SVG Export Plug-In . SVG Version: 6.00 Build 0)  -->
<svg version="1.1" id="레이어_1" xmlns="http://www.w3.org/2000/svg" xmlns:xlink="http://www.w3.org/1999/xlink" x="0px"
	 y="0px" viewBox="0 0 22 22" style="enable-background:new 0 0 22 22;" xml:space="preserve">
<style type="text/css">
	.st0{fill:#FFFFFF;}
</style>
<title>아이콘</title>
<path class="st0" d="M21,4H1C0.4,4,0,3.6,0,3s0.4-1,1-1h20c0.6,0,1,0.4,1,1S21.6,4,21,4z"/>
<path class="st0" d="M21,20H1c-0.6,0-1-0.4-1-1s0.4-1,1-1h20c0.6,0,1,0.4,1,1S21.6,20,21,20z"/>
<path class="st0" d="M21,12H1c-0.6,0-1-0.4-1-1s0.4-1,1-1h20c0.6,0,1,0.4,1,1S21.6,12,21,12z"/>
</svg>
