<svg id="레이어_1" data-name="레이어 1" xmlns="http://www.w3.org/2000/svg" viewBox="0 0 30 30"><defs><style>.cls-1{fill:#fff;}</style></defs><title>아이콘</title><path class="cls-1" d="M15,0A15,15,0,1,0,30,15,15,15,0,0,0,15,0Zm9.15,11.89a4.86,4.86,0,0,1,0,.54,10.83,10.83,0,0,1-.29,2.47,12,12,0,0,1-3.76,6.35,11.55,11.55,0,0,1-7.76,2.8A12.05,12.05,0,0,1,6,22.22a6.44,6.44,0,0,0,1,.05,8.42,8.42,0,0,0,5.09-1.7,4.16,4.16,0,0,1-3.8-2.79,4.88,4.88,0,0,0,.76.07,4.49,4.49,0,0,0,1.09-.16,4.23,4.23,0,0,1-3-2.54,5.94,5.94,0,0,1-.29-1.5,4.86,4.86,0,0,0,1.75.48,4.13,4.13,0,0,1-1.75-3.37,3.85,3.85,0,0,1,.57-2A12,12,0,0,0,15.88,13a4,4,0,0,1-.15-1,4.17,4.17,0,0,1,7.16-2.82,8.2,8.2,0,0,0,2.49-.87c.09-.06.09,0,.09.07a4.26,4.26,0,0,1-1.75,2.09A9.65,9.65,0,0,0,25.91,10c.09,0,.09,0,.09.11A8.24,8.24,0,0,1,24.15,11.89Z"/></svg>