<svg id="레이어_1" data-name="레이어 1" xmlns="http://www.w3.org/2000/svg" viewBox="0 0 30 30"><defs><style>.cls-1{fill:#fff;}</style></defs><title>아이콘</title><path class="cls-1" d="M11.8,14.2a1.82,1.82,0,0,0-1.75,1.9A1.84,1.84,0,0,0,11.8,18a1.83,1.83,0,0,0,1.74-1.9A1.81,1.81,0,0,0,11.8,14.2Z"/><path class="cls-1" d="M18.05,14.2a1.82,1.82,0,0,0-1.75,1.9,1.75,1.75,0,1,0,3.49,0A1.82,1.82,0,0,0,18.05,14.2Z"/><path class="cls-1" d="M15,0A15,15,0,1,0,30,15,15,15,0,0,0,15,0Zm4.76,22.19s-.62-.73-1.13-1.39a5.41,5.41,0,0,0,3.1-2,10.26,10.26,0,0,1-2,1,11,11,0,0,1-2.48.73,12,12,0,0,1-4.44,0,14.87,14.87,0,0,1-2.51-.74,8.65,8.65,0,0,1-1.25-.58c-.06,0-.11-.05-.16-.09A.18.18,0,0,1,8.85,19a5.51,5.51,0,0,1-.48-.29,5.36,5.36,0,0,0,3,2c-.51.65-1.15,1.42-1.15,1.42A6.21,6.21,0,0,1,5,19.59a22.9,22.9,0,0,1,2.47-10,8.46,8.46,0,0,1,4.81-1.8l.17.2A11.48,11.48,0,0,0,8,10.26s.37-.21,1-.5a12.94,12.94,0,0,1,3.88-1.08,1.5,1.5,0,0,1,.29,0,14.7,14.7,0,0,1,3.46,0,13.94,13.94,0,0,1,5.16,1.65,11.42,11.42,0,0,0-4.27-2.18l.24-.27a8.46,8.46,0,0,1,4.81,1.8,22.9,22.9,0,0,1,2.47,10A6.27,6.27,0,0,1,19.76,22.19Z"/></svg>