<svg id="레이어_1" data-name="레이어 1" xmlns="http://www.w3.org/2000/svg" viewBox="0 0 30 30"><defs><style>.cls-1{fill:#fff;}</style></defs><title>아이콘</title><path class="cls-1" d="M9.61,16.89s0,0,0,0l0,0Z"/><path class="cls-1" d="M15,0A15,15,0,1,0,30,15,15,15,0,0,0,15,0Zm6.82,22.56A9.53,9.53,0,0,1,15.21,25v0a10,10,0,0,1-8.94-5.5v0a10,10,0,0,1,0-9h0A10,10,0,0,1,15.21,5a9.54,9.54,0,0,1,6.68,2.61L19,10.47A5.4,5.4,0,0,0,15.21,9V9a6,6,0,0,0-5.6,4.12h0a6,6,0,0,0,0,3.76h0v0a6,6,0,0,0,5.6,4.1,6,6,0,0,0,3.38-.93,4.57,4.57,0,0,0,2-3H15.21V13.18h9.4a11.55,11.55,0,0,1,.18,2A9.79,9.79,0,0,1,21.82,22.56Z"/><path class="cls-1" d="M9.61,16.86h0s0,0,0,0Z"/></svg>