<?xml version="1.0" encoding="utf-8"?>
<!-- Generator: Adobe Illustrator 23.0.0, SVG Export Plug-In . SVG Version: 6.00 Build 0)  -->
<svg version="1.1" id="레이어_1" xmlns="http://www.w3.org/2000/svg" xmlns:xlink="http://www.w3.org/1999/xlink" x="0px"
	 y="0px" viewBox="0 0 58 45" style="enable-background:new 0 0 58 45;" xml:space="preserve">
<style type="text/css">
	.st0{fill:#FFFFFF;}
	.st1{opacity:0.5;fill:#FFFFFF;enable-background:new    ;}
</style>
<title>logoTop</title>
<g>
	<g>
		<path class="st0" d="M24,26.8l-5.5-5.3l-5-4.8c-0.5-0.5-1.3-0.5-1.8,0l-5,4.8l-5.6,5.3c-0.3,0.2-0.4,0.6-0.4,0.9v16
			C0.7,44.4,1.3,45,2,45c0,0,0,0,0.1,0h21.1c0.7,0,1.3-0.6,1.3-1.3v-16C24.4,27.3,24.3,27,24,26.8z M11.5,38.6
			c0,0.2-0.2,0.4-0.4,0.4c0,0,0,0,0,0H7.5c-0.2,0-0.4-0.2-0.4-0.4l0,0v-3.5c0-0.2,0.2-0.4,0.4-0.4h3.5c0.2,0,0.4,0.2,0.4,0.4l0,0
			L11.5,38.6z M11.5,32.1c0,0.2-0.2,0.4-0.4,0.4c0,0,0,0,0,0H7.5c-0.2,0-0.4-0.2-0.4-0.4v-3.5c0-0.2,0.2-0.4,0.4-0.4h3.5
			c0.2,0,0.4,0.2,0.4,0.4c0,0,0,0,0,0L11.5,32.1z M18,38.6c0,0.2-0.2,0.4-0.4,0.4c0,0,0,0,0,0h-3.5c-0.2,0-0.4-0.2-0.4-0.4l0,0v-3.5
			c0-0.2,0.2-0.4,0.4-0.4c0,0,0,0,0,0h3.5c0.2,0,0.4,0.2,0.4,0.4V38.6z M18,32.1c0,0.2-0.2,0.4-0.4,0.4h-3.5c-0.2,0-0.4-0.2-0.4-0.4
			c0,0,0,0,0,0v-3.5c0-0.2,0.2-0.4,0.4-0.4c0,0,0,0,0,0h3.5c0.2,0,0.4,0.2,0.4,0.4l0,0V32.1z"/>
		<path class="st0" d="M56.9,26.8l-5.5-5.3l-5-4.8c-0.5-0.5-1.3-0.5-1.8,0l-5,4.8L34,26.8c-0.3,0.2-0.4,0.6-0.4,0.9v16
			c0,0.7,0.6,1.3,1.3,1.3H56c0.7,0,1.3-0.6,1.3-1.3l0,0v-16C57.3,27.4,57.2,27,56.9,26.8z M44.4,38.6c0,0.2-0.2,0.4-0.4,0.4h-3.6
			c-0.2,0-0.4-0.2-0.4-0.4c0,0,0,0,0,0v-3.5c0-0.2,0.2-0.4,0.4-0.4H44c0.2,0,0.4,0.2,0.4,0.4l0,0L44.4,38.6z M44.4,32.1
			c0,0.2-0.2,0.4-0.4,0.4c0,0,0,0,0,0h-3.5c-0.2,0-0.4-0.2-0.4-0.4v-3.5c0-0.2,0.2-0.4,0.4-0.4H44c0.2,0,0.4,0.2,0.4,0.4
			c0,0,0,0,0,0L44.4,32.1z M50.9,38.6c0,0.2-0.2,0.4-0.4,0.4l0,0H47c-0.2,0-0.4-0.2-0.4-0.4l0,0v-3.5c0-0.2,0.2-0.4,0.4-0.4l0,0h3.5
			c0.2,0,0.4,0.2,0.4,0.4L50.9,38.6z M50.9,32.1c0,0.2-0.2,0.4-0.4,0.4H47c-0.2,0-0.4-0.2-0.4-0.4c0,0,0,0,0,0v-3.5
			c0-0.2,0.2-0.4,0.4-0.4c0,0,0,0,0,0h3.5c0.2,0,0.4,0.2,0.4,0.4L50.9,32.1z"/>
		<path class="st1" d="M31.1,0.9l8.8,8.8c1.2,1.2,1.2,3.1,0,4.2l-8.8,8.8c-1.2,1.2-3.1,1.2-4.2,0l-8.8-8.8c-1.2-1.2-1.2-3.1,0-4.2
			l8.8-8.8C28.1-0.3,30-0.3,31.1,0.9z"/>
		<path class="st0" d="M33.8,8.2L33.8,8.2c-0.3-0.2-0.7-0.2-0.9,0l-3.6,3.6V6.4c0-0.4-0.3-0.6-0.6-0.6c-0.4,0-0.6,0.3-0.6,0.6v10.4
			l-5-5c-0.2-0.2-0.6-0.3-0.9,0c0,0,0,0,0,0c-0.2,0.3-0.2,0.7,0,0.9l5.9,5.9v25.8c0,0.4,0.3,0.6,0.6,0.6c0.4,0,0.6-0.3,0.6-0.6V13.5
			l4.5-4.5C34.1,8.8,34.1,8.4,33.8,8.2C33.8,8.2,33.8,8.2,33.8,8.2z"/>
	</g>
	<g>
		<path class="st0" d="M4.8,6.9c0,0.6,0.4,1,1,1.1h0.1c0.6,0,1-0.5,1-1c0-0.6-0.5-1-1-1C5.3,6,4.9,6.4,4.8,6.9L4.8,6.9z"/>
		<path class="st0" d="M1,6.7C0.9,6.7,0.7,6.8,0.7,7S0.8,7.3,1,7.3c0.2,0,0.3-0.1,0.3-0.3C1.4,6.8,1.2,6.7,1,6.7C1,6.7,1,6.7,1,6.7z
			"/>
		<path class="st0" d="M4.8,1C4.9,0.9,5,0.7,4.9,0.6S4.6,0.4,4.5,0.4l0,0C4.3,0.5,4.2,0.7,4.3,0.9C4.4,1,4.6,1.1,4.8,1L4.8,1z"/>
		<path class="st0" d="M5.8,2.8C6.1,2.7,6.1,2.4,6,2.1C5.9,1.9,5.6,1.8,5.3,1.9C5.1,2.1,5,2.4,5.1,2.6C5.2,2.9,5.5,3,5.8,2.8
			C5.8,2.8,5.8,2.8,5.8,2.8z"/>
		<path class="st0" d="M2.3,4.1C2.5,4.2,2.8,4.1,2.9,4C3,3.8,3,3.5,2.8,3.4C2.6,3.2,2.3,3.3,2.2,3.5c0,0,0,0,0,0l0,0
			C2.1,3.7,2.1,3.9,2.3,4.1z"/>
		<path class="st0" d="M2.9,6.5C2.7,6.5,2.4,6.7,2.4,7c0,0,0,0,0,0c0,0.3,0.2,0.5,0.5,0.5S3.4,7.3,3.4,7C3.4,6.8,3.2,6.5,2.9,6.5
			L2.9,6.5z"/>
		<path class="st0" d="M2.4,9.9c-0.2,0.1-0.3,0.4-0.2,0.6c0.1,0.2,0.4,0.3,0.6,0.2s0.3-0.4,0.2-0.6c0,0,0,0,0,0
			C2.8,9.9,2.6,9.8,2.4,9.9z"/>
		<path class="st0" d="M4.4,5.4C4.6,5.6,5,5.5,5.2,5.3C5.4,5,5.3,4.6,5,4.4C4.7,4.3,4.4,4.3,4.2,4.6C4,4.9,4.1,5.3,4.4,5.4
			C4.4,5.4,4.4,5.4,4.4,5.4z"/>
		<path class="st0" d="M10.6,2.8c0.3,0.1,0.6,0,0.7-0.2c0.1-0.2,0.1-0.5-0.1-0.6c-0.2-0.2-0.6-0.1-0.7,0.2
			C10.3,2.3,10.4,2.6,10.6,2.8L10.6,2.8z"/>
		<path class="st0" d="M11.7,1c0.2,0.1,0.4,0,0.5-0.1c0.1-0.2,0.1-0.4-0.1-0.5c-0.2-0.1-0.4,0-0.5,0.1l0,0C11.5,0.7,11.5,0.9,11.7,1
			z"/>
		<path class="st0" d="M10.7,6c-0.6,0-1,0.4-1.1,1s0.4,1,1,1.1h0.1c0.6,0,1-0.5,1-1c0-0.3-0.1-0.5-0.3-0.7C11.2,6.1,11,6,10.7,6z"/>
		<path class="st0" d="M6.1,5.4C6.3,5.7,6.7,5.9,7,5.9c0.6,0,1-0.5,1-1c0,0,0,0,0,0c0-0.2,0-0.3-0.1-0.5C7.7,4,7.1,3.8,6.6,4
			C6.1,4.3,5.9,4.9,6.1,5.4z"/>
		<path class="st0" d="M14.1,4.1c0.2-0.1,0.3-0.4,0.2-0.6c-0.1-0.2-0.4-0.3-0.6-0.2c-0.2,0.1-0.3,0.4-0.2,0.6
			C13.7,4.1,13.9,4.2,14.1,4.1z"/>
		<path class="st0" d="M11.5,4.4c-0.3,0.1-0.4,0.5-0.3,0.8c0.1,0.3,0.5,0.4,0.8,0.3c0.3-0.1,0.4-0.5,0.3-0.8
			C12.2,4.4,11.8,4.2,11.5,4.4C11.5,4.4,11.5,4.4,11.5,4.4z"/>
		<path class="st0" d="M8.2,0.8c0.2,0,0.4-0.2,0.4-0.4C8.7,0.2,8.5,0,8.3,0C8,0,7.8,0.2,7.8,0.4l0,0C7.8,0.6,8,0.8,8.2,0.8z"/>
		<path class="st0" d="M8.2,3.5c0.3,0,0.6-0.2,0.6-0.6S8.6,2.3,8.3,2.3l0,0c-0.3,0-0.6,0.2-0.6,0.6C7.6,3.2,7.9,3.5,8.2,3.5z"/>
		<path class="st0" d="M5,9.6c0.3-0.1,0.4-0.5,0.3-0.8C5.1,8.5,4.7,8.4,4.4,8.5C4.1,8.7,4,9,4.2,9.3l0,0C4.3,9.6,4.7,9.7,5,9.6z"/>
		<path class="st0" d="M8.6,4.3C8.3,4.8,8.4,5.5,8.9,5.8C9.4,6.1,10,6,10.3,5.5C10.6,5,10.5,4.4,10,4.1C9.9,3.9,9.7,3.9,9.5,3.9
			C9.1,3.9,8.8,4.1,8.6,4.3z"/>
		<path class="st0" d="M10.4,8.6C10.1,8.1,9.5,7.9,9,8.2C8.5,8.4,8.3,9,8.6,9.5c0.2,0.3,0.5,0.6,0.9,0.6c0.2,0,0.3,0,0.5-0.1
			C10.4,9.7,10.6,9.1,10.4,8.6z"/>
		<path class="st0" d="M12.1,8.5c-0.3-0.2-0.6-0.1-0.8,0.2c-0.2,0.3-0.1,0.6,0.2,0.8c0.3,0.2,0.6,0.1,0.8-0.2
			C12.5,9.1,12.4,8.7,12.1,8.5C12.1,8.5,12.1,8.5,12.1,8.5z"/>
		<path class="st0" d="M14.1,7c0-0.3-0.2-0.5-0.5-0.5c-0.3,0-0.5,0.2-0.5,0.5c0,0.3,0.2,0.5,0.5,0.5C13.8,7.5,14.1,7.3,14.1,7z"/>
		<path class="st0" d="M15.5,6.6c-0.2,0-0.3,0.1-0.4,0.3c0,0.2,0.1,0.3,0.3,0.4c0.2,0,0.3-0.1,0.4-0.3c0,0,0,0,0,0l0,0
			C15.8,6.8,15.7,6.7,15.5,6.6z"/>
		<path class="st0" d="M14.2,9.9C14,9.8,13.7,9.8,13.6,10c-0.1,0.2-0.1,0.5,0.1,0.6s0.5,0.1,0.6-0.1c0,0,0,0,0,0
			C14.4,10.3,14.4,10,14.2,9.9L14.2,9.9z"/>
		<path class="st0" d="M4.8,13c-0.2-0.1-0.4-0.1-0.5,0.1c-0.1,0.2-0.1,0.4,0.1,0.5s0.4,0.1,0.5-0.1c0,0,0,0,0,0
			C5,13.3,5,13.1,4.8,13z"/>
		<path class="st0" d="M11.7,13c-0.2,0.1-0.2,0.3-0.1,0.4c0.1,0.2,0.3,0.2,0.4,0.1c0.2-0.1,0.2-0.3,0.1-0.4l0,0
			C12.1,12.9,11.9,12.9,11.7,13L11.7,13z"/>
		<path class="st0" d="M7.9,9.6c0.3-0.5,0.2-1.1-0.3-1.4C7.1,7.9,6.5,8,6.2,8.5C5.9,9,6,9.6,6.5,9.9c0.2,0.1,0.4,0.2,0.6,0.2
			C7.4,10.1,7.7,9.9,7.9,9.6z"/>
		<path class="st0" d="M5.9,11.2c-0.2-0.2-0.6-0.1-0.7,0.1C5,11.6,5.1,11.9,5.3,12c0.2,0.2,0.6,0.1,0.7-0.1c0,0,0,0,0,0
			C6.2,11.6,6.1,11.3,5.9,11.2z"/>
		<path class="st0" d="M8.2,13.1c-0.2,0-0.4,0.2-0.4,0.4C7.8,13.8,8,14,8.2,14c0.2,0,0.4-0.2,0.4-0.4C8.7,13.4,8.5,13.2,8.2,13.1z"
			/>
		<path class="st0" d="M8.3,10.5c-0.3,0-0.6,0.2-0.6,0.6c0,0.3,0.2,0.6,0.6,0.6c0.3,0,0.6-0.2,0.6-0.6l0,0
			C8.8,10.8,8.6,10.5,8.3,10.5C8.3,10.5,8.3,10.5,8.3,10.5z"/>
		<path class="st0" d="M10.7,11.2c-0.3,0.1-0.4,0.4-0.2,0.7c0,0,0,0,0,0c0.1,0.3,0.4,0.4,0.7,0.3c0.3-0.1,0.4-0.4,0.3-0.7
			c0,0,0,0,0,0l0,0C11.3,11.1,11,11,10.7,11.2C10.7,11.2,10.7,11.2,10.7,11.2L10.7,11.2z"/>
	</g>
</g>
</svg>
