<svg id="레이어_1" data-name="레이어 1" xmlns="http://www.w3.org/2000/svg" viewBox="0 0 57 45"><defs><style>.cls-1,.cls-2{fill:#11aa8b;}.cls-2{opacity:0.5;isolation:isolate;}</style></defs><title>logoW</title><path class="cls-1" d="M56.6,26.8l-5.5-5.3-5-4.8a1.27,1.27,0,0,0-1.8,0l-5,4.8-5.6,5.3a1.09,1.09,0,0,0-.4.9v16a1.32,1.32,0,0,0,1.3,1.3H55.7A1.32,1.32,0,0,0,57,43.7h0v-16A1.09,1.09,0,0,0,56.6,26.8ZM44.1,38.6a.43.43,0,0,1-.4.4H40.1a.42.42,0,0,1-.39-.4h0V35.1a.42.42,0,0,1,.39-.4h3.6a.43.43,0,0,1,.4.4h0Zm0-6.5a.43.43,0,0,1-.4.4H40.2a.43.43,0,0,1-.4-.4V28.6a.43.43,0,0,1,.4-.4h3.5a.43.43,0,0,1,.4.4h0Zm6.5,6.5a.43.43,0,0,1-.4.4H46.7a.43.43,0,0,1-.4-.4h0V35.1a.43.43,0,0,1,.4-.4h3.5a.43.43,0,0,1,.4.4Zm0-6.5a.43.43,0,0,1-.4.4H46.7a.43.43,0,0,1-.4-.4h0V28.6a.43.43,0,0,1,.4-.4h3.5a.43.43,0,0,1,.4.4Z"/><path class="cls-2" d="M30.91.9l8.8,8.8a2.92,2.92,0,0,1,0,4.2l-8.8,8.8a2.9,2.9,0,0,1-4.2,0l-8.8-8.8a2.9,2.9,0,0,1,0-4.2L26.71.9A2.9,2.9,0,0,1,30.91.9Z"/><path class="cls-1" d="M33.61,8.2h0a.75.75,0,0,0-.9,0l-3.6,3.6V6.4a.6.6,0,0,0-1.2,0V16.8l-5-5a.63.63,0,0,0-.9,0h0a.75.75,0,0,0,0,.9l5.9,5.9V44.4a.6.6,0,0,0,1.2,0V13.5L33.61,9a.47.47,0,0,0,0-.8Z"/><path class="cls-1" d="M49.54,4.71a.69.69,0,0,0,.64.73h0a.69.69,0,1,0-.69-.73Z"/><path class="cls-1" d="M47,4.53A.22.22,0,1,0,47,5a.22.22,0,0,0,.21-.19A.23.23,0,0,0,47,4.53Z"/><path class="cls-1" d="M49.51.7a.23.23,0,0,0,.1-.3A.23.23,0,0,0,49.3.3a.23.23,0,0,0,.21.41Z"/><path class="cls-1" d="M50.2,1.92a.35.35,0,0,0,.16-.46.36.36,0,0,0-.47-.16.35.35,0,0,0-.15.47h0A.34.34,0,0,0,50.2,1.92Z"/><path class="cls-1" d="M47.84,2.76a.29.29,0,0,0,.32-.48.29.29,0,0,0-.4.07v0h0a.28.28,0,0,0,.09.39Z"/><path class="cls-1" d="M48.26,4.41a.35.35,0,0,0-.36.33.34.34,0,0,0,.32.36.35.35,0,0,0,0-.69Z"/><path class="cls-1" d="M47.88,6.73a.3.3,0,0,0-.13.39.28.28,0,0,0,.38.12.28.28,0,1,0-.25-.51Z"/><path class="cls-1" d="M49.22,3.7A.41.41,0,0,0,49.67,3a.41.41,0,0,0-.57.11h0a.4.4,0,0,0,.12.56Z"/><path class="cls-1" d="M53.48,1.89a.34.34,0,0,0,.48-.1.35.35,0,0,0-.58-.38h0a.34.34,0,0,0,.1.48Z"/><path class="cls-1" d="M54.19.68A.22.22,0,0,0,54.5.61.22.22,0,0,0,54.43.3a.21.21,0,0,0-.3,0h0a.22.22,0,0,0,0,.3Z"/><path class="cls-1" d="M53.53,4.05a.69.69,0,1,0-.08,1.38h0a.69.69,0,0,0,.69-.69A.72.72,0,0,0,54,4.28.71.71,0,0,0,53.53,4.05Z"/><path class="cls-1" d="M50.43,3.65a.69.69,0,0,0,.92.34.69.69,0,1,0-.58-1.26.68.68,0,0,0-.4.61A.56.56,0,0,0,50.43,3.65Z"/><path class="cls-1" d="M55.85,2.76A.28.28,0,0,0,56,2.38a.3.3,0,0,0-.39-.13.28.28,0,0,0-.12.38.28.28,0,0,0,.38.13Z"/><path class="cls-1" d="M54.1,3a.41.41,0,0,0-.19.55.41.41,0,1,0,.73-.37A.4.4,0,0,0,54.1,3Z"/><path class="cls-1" d="M51.84.57a.29.29,0,0,0,.3-.27.3.3,0,0,0-.27-.3.28.28,0,0,0-.3.27h0a.28.28,0,0,0,.27.3Z"/><path class="cls-1" d="M51.83,2.36a.41.41,0,1,0-.38-.43h0A.4.4,0,0,0,51.83,2.36Z"/><path class="cls-1" d="M49.63,6.51A.4.4,0,0,0,49.81,6a.39.39,0,0,0-.54-.18h0a.39.39,0,0,0-.19.54h0a.41.41,0,0,0,.55.19Z"/><path class="cls-1" d="M52.1,3a.69.69,0,0,0,.2,1,.68.68,0,0,0,1-.2.69.69,0,0,0-.57-1.07A.69.69,0,0,0,52.1,3Z"/><path class="cls-1" d="M53.3,5.85a.69.69,0,1,0-.31.93h0a.69.69,0,0,0,.31-.92Z"/><path class="cls-1" d="M54.51,5.8a.41.41,0,1,0-.45.68.4.4,0,0,0,.56-.12h0A.4.4,0,0,0,54.51,5.8Z"/><path class="cls-1" d="M55.83,4.76a.34.34,0,0,0-.32-.36.35.35,0,0,0-.37.32.36.36,0,0,0,.33.37A.35.35,0,0,0,55.83,4.76Z"/><path class="cls-1" d="M56.79,4.51a.22.22,0,0,0-.22.22.21.21,0,0,0,.22.21A.21.21,0,0,0,57,4.75h0a.21.21,0,0,0-.19-.23Z"/><path class="cls-1" d="M55.89,6.73a.29.29,0,0,0-.4.09.28.28,0,0,0,.09.39A.29.29,0,0,0,56,7.13h0A.29.29,0,0,0,55.89,6.73Z"/><path class="cls-1" d="M49.54,8.81a.21.21,0,0,0-.29.08.21.21,0,0,0,.07.29.21.21,0,0,0,.28,0,.22.22,0,0,0,0-.3Z"/><path class="cls-1" d="M54.23,8.8a.21.21,0,0,0-.09.29.22.22,0,0,0,.3.08.22.22,0,0,0,.09-.27h0a.22.22,0,0,0-.29-.11Z"/><path class="cls-1" d="M51.63,6.54a.69.69,0,1,0-1,.2A.69.69,0,0,0,51.63,6.54Z"/><path class="cls-1" d="M50.25,7.6a.35.35,0,1,0,.1.48A.35.35,0,0,0,50.25,7.6Z"/><path class="cls-1" d="M51.86,8.93a.28.28,0,1,0,0,.56.28.28,0,0,0,.3-.26.28.28,0,0,0-.27-.3Z"/><path class="cls-1" d="M51.86,7.13a.41.41,0,0,0,0,.82.4.4,0,0,0,.43-.38h0A.4.4,0,0,0,51.86,7.13Z"/><path class="cls-1" d="M53.53,7.57a.35.35,0,0,0-.16.47.35.35,0,0,0,.47.15A.34.34,0,0,0,54,7.73h0A.35.35,0,0,0,53.53,7.57Z"/><path class="cls-1" d="M0,27.7v16H0A1.32,1.32,0,0,0,1.3,45H22.39a1.32,1.32,0,0,0,1.3-1.3v-16a1.09,1.09,0,0,0-.4-.9l-5.6-5.3-5-4.8a1.27,1.27,0,0,0-1.8,0l-5,4.8L.4,26.8A1.09,1.09,0,0,0,0,27.7Zm12.9,7.4h0a.43.43,0,0,1,.4-.4h3.6a.42.42,0,0,1,.39.4v3.5h0a.42.42,0,0,1-.39.4H13.3a.43.43,0,0,1-.4-.4Zm0-6.5h0a.43.43,0,0,1,.4-.4h3.5a.43.43,0,0,1,.4.4v3.5a.43.43,0,0,1-.4.4H13.3a.43.43,0,0,1-.4-.4ZM6.4,35.1a.43.43,0,0,1,.4-.4h3.5a.43.43,0,0,1,.4.4v3.5h0a.43.43,0,0,1-.4.4H6.8a.43.43,0,0,1-.4-.4Zm0-6.5a.43.43,0,0,1,.4-.4h3.5a.43.43,0,0,1,.4.4v3.5h0a.43.43,0,0,1-.4.4H6.8a.43.43,0,0,1-.4-.4Z"/></svg>