<?xml version="1.0" encoding="utf-8"?>
<!-- Generator: Adobe Illustrator 23.0.0, SVG Export Plug-In . SVG Version: 6.00 Build 0)  -->
<svg version="1.1" id="레이어_1" xmlns="http://www.w3.org/2000/svg" xmlns:xlink="http://www.w3.org/1999/xlink" x="0px"
	 y="0px" viewBox="0 0 100 30" style="enable-background:new 0 0 100 30;" xml:space="preserve">
<style type="text/css">
	.st0{fill:url(#SVGID_1_);}
	.st1{fill:url(#SVGID_2_);}
</style>
<linearGradient id="SVGID_1_" gradientUnits="userSpaceOnUse" x1="68.8895" y1="47.7176" x2="31.3568" y2="-17.291">
	<stop  offset="0" style="stop-color:#DB9125"/>
	<stop  offset="6.224690e-03" style="stop-color:#DC9327"/>
	<stop  offset="0.1108" style="stop-color:#E8B744"/>
	<stop  offset="0.2162" style="stop-color:#F2D35B"/>
	<stop  offset="0.3218" style="stop-color:#F9E76B"/>
	<stop  offset="0.4275" style="stop-color:#FEF375"/>
	<stop  offset="0.5336" style="stop-color:#FFF778"/>
	<stop  offset="0.7799" style="stop-color:#EDC34E"/>
	<stop  offset="1" style="stop-color:#DB9125"/>
	<stop  offset="1" style="stop-color:#DD9529"/>
	<stop  offset="1" style="stop-color:#E8AE45"/>
	<stop  offset="1" style="stop-color:#F0C059"/>
	<stop  offset="1" style="stop-color:#F4CA65"/>
	<stop  offset="1" style="stop-color:#F6CE69"/>
</linearGradient>
<path class="st0" d="M7.3,20.6c-0.8-0.2-1.5-0.5-2.1-0.9l1.1-2.4c0.6,0.4,1.2,0.6,1.8,0.8c0.7,0.2,1.3,0.3,2,0.3
	c1.2,0,1.9-0.3,1.9-0.9c0-0.3-0.2-0.6-0.5-0.7c-0.6-0.2-1.1-0.4-1.7-0.5c-0.7-0.1-1.5-0.3-2.2-0.6c-0.6-0.2-1.1-0.6-1.5-1
	c-0.4-0.5-0.6-1.2-0.6-1.9c0-0.7,0.2-1.3,0.6-1.9c0.4-0.6,1-1.1,1.7-1.4C8.5,9.1,9.5,9,10.4,9c0.8,0,1.5,0.1,2.3,0.3
	c0.7,0.1,1.3,0.4,1.9,0.8l-1,2.4c-1-0.6-2.1-0.9-3.2-0.9c-0.5,0-1,0.1-1.4,0.3c-0.3,0.2-0.4,0.4-0.5,0.8c0,0.3,0.2,0.6,0.5,0.7
	c0.5,0.2,1.1,0.4,1.7,0.5c0.7,0.1,1.5,0.3,2.2,0.6c0.6,0.2,1.1,0.6,1.5,1c0.4,0.5,0.7,1.2,0.6,1.9c0,0.7-0.2,1.3-0.6,1.9
	c-0.4,0.6-1,1.1-1.7,1.3C11.9,20.8,11,21,10,21C9.1,21,8.2,20.9,7.3,20.6z M19.1,20.2c-2.9-1.5-4-5.1-2.5-8c0.6-1.1,1.4-1.9,2.5-2.5
	c2.1-1,4.5-1,6.6,0c2.9,1.5,4,5.1,2.5,7.9c-0.6,1.1-1.4,1.9-2.5,2.5C23.6,21.3,21.2,21.3,19.1,20.2z M24,17.9
	c0.5-0.3,0.9-0.7,1.1-1.1c0.6-1.1,0.6-2.4,0-3.4c-0.3-0.5-0.7-0.9-1.1-1.1c-1-0.6-2.2-0.6-3.2,0c-0.5,0.3-0.9,0.7-1.1,1.1
	c-0.5,1.1-0.5,2.4,0,3.4c0.3,0.5,0.7,0.9,1.1,1.1C21.8,18.4,23,18.4,24,17.9z M30.5,9.2h3.3v8.9h5.5v2.6h-8.8V9.2z M40.6,9.2H46
	c1.2,0,2.3,0.2,3.4,0.7c0.9,0.4,1.7,1.1,2.3,2c0.5,0.9,0.8,2,0.8,3c0,1.1-0.3,2.1-0.8,3c-0.5,0.9-1.3,1.6-2.3,2
	c-1.1,0.5-2.2,0.7-3.4,0.7h-5.5V9.2z M45.9,18.2c0.9,0,1.7-0.3,2.4-0.8c0.6-0.6,0.9-1.5,0.9-2.3c0-0.9-0.3-1.7-0.9-2.3
	c-0.7-0.6-1.5-0.9-2.4-0.8h-2.1v6.3L45.9,18.2z M61.5,20.2c-2.9-1.5-4-5.1-2.5-7.9c0.6-1.1,1.4-1.9,2.5-2.5c2.1-1,4.5-1,6.6,0
	c2.9,1.5,4,5.1,2.5,7.9c-0.6,1.1-1.4,1.9-2.5,2.5C66,21.3,63.6,21.3,61.5,20.2z M66.4,17.9c0.5-0.3,0.9-0.7,1.1-1.1
	c0.6-1.1,0.6-2.4,0-3.4c-0.3-0.5-0.7-0.9-1.1-1.1c-1-0.6-2.2-0.6-3.2,0c-0.5,0.3-0.9,0.7-1.1,1.1c-0.6,1.1-0.6,2.4,0,3.4
	c0.3,0.5,0.7,0.9,1.1,1.1C64.2,18.4,65.4,18.4,66.4,17.9z M74.2,19.6c-1-1.1-1.5-2.5-1.4-4V9.2h3.3v6.3c0,1.8,0.7,2.8,2.2,2.8
	c1.5,0,2.2-0.9,2.2-2.8V9.2h3.2v6.4c0.1,1.5-0.4,2.9-1.4,4C79.9,21.5,76.5,21.5,74.2,19.6L74.2,19.6z M88.1,11.8h-3.5V9.2h10.3v2.6
	h-3.5v8.9h-3.3V11.8z M97.8,2.4v25.2H2.2V2.4H97.8 M99.4,0H1.9C0.8,0,0,0.9,0,2v27.4C0,29.7,0.2,30,0.6,30h98.9
	c0.3,0,0.6-0.3,0.6-0.6V0.6C100,0.3,99.8,0,99.4,0z"/>
</svg>
