<?xml version="1.0" encoding="utf-8"?>
<!-- Generator: Adobe Illustrator 23.0.0, SVG Export Plug-In . SVG Version: 6.00 Build 0)  -->
<svg version="1.1" id="레이어_1" xmlns="http://www.w3.org/2000/svg" xmlns:xlink="http://www.w3.org/1999/xlink" x="0px"
	 y="0px" viewBox="0 0 180 180" style="enable-background:new 0 0 180 180;" xml:space="preserve">
<style type="text/css">
	.st0{fill:#1D9BF0;}
</style>
<path id="XMLID_1_" class="st0" d="M179.2,35.9c-6.1,2.3-12.6,4-19.4,4.9c7.1-4.2,12.7-10.7,15.7-18.5c0.2-0.5-0.3-1.1-0.8-0.6
	c-6.8,3.7-14.1,6.5-22,7.9c-6.7-7-16.3-11.3-26.8-11.3c-20.2,0-36.6,16.1-36.6,36.2c0,2.9,0.3,5.6,1.1,8.4
	C60,61.1,33,46.8,14.8,25.1c-0.2-0.2-0.3-0.2-0.3,0c-3.1,5.3-4.8,11.3-4.8,18c0,12.2,6.2,23.1,15.7,29.8c0,0.1,0,0.2-0.4,0.2
	c-5.6-0.3-10.9-1.9-15.7-4.2c-0.2,0-0.3,0-0.3,0.2c0.2,1.5,0.6,8.7,2.5,13.2c4.6,11.2,14.6,19.9,27,22.5c-3.1,0.8-6.2,1.4-9.6,1.4
	c-2.2,0-4.4-0.2-6.7-0.6c-0.2,0-0.3,0.2-0.2,0.3c4.8,13.9,17.8,24.3,33.6,24.8c0.2,0,0.3,0.3,0.2,0.3C43.2,140.4,27.6,146,10.7,146
	c-2.9,0-5.8-0.2-8.7-0.5c16.3,10.2,35.5,16.3,56.2,16.3c28.5,0,51.6-9.9,68.7-24.8c17.4-15.1,28.5-35.5,33.3-56.2
	c1.7-7.3,2.5-14.6,2.5-21.9c0-1.5,0-3.1-0.2-4.8c6.7-4.8,12.4-10.5,17.2-17.2C180.3,36.3,179.9,35.8,179.2,35.9z"/>
</svg>
