<?xml version="1.0" encoding="utf-8"?>
<!-- Generator: Adobe Illustrator 23.0.0, SVG Export Plug-In . SVG Version: 6.00 Build 0)  -->
<svg version="1.1" id="레이어_1" xmlns="http://www.w3.org/2000/svg" xmlns:xlink="http://www.w3.org/1999/xlink" x="0px"
	 y="0px" viewBox="0 0 100 30" style="enable-background:new 0 0 100 30;" xml:space="preserve">
<style type="text/css">
	.st0{fill:url(#SVGID_1_);}
	.st1{fill:url(#SVGID_2_);}
</style>
<linearGradient id="SVGID_1_" gradientUnits="userSpaceOnUse" x1="68.8895" y1="47.7176" x2="31.3568" y2="-17.291">
	<stop  offset="0" style="stop-color:#A4A4A4"/>
	<stop  offset="0.3958" style="stop-color:#FFFFFF"/>
	<stop  offset="0.6356" style="stop-color:#FFFFFF"/>
	<stop  offset="0.9944" style="stop-color:#A4A4A4"/>
</linearGradient>
<path class="st0" d="M97.8,2.4v25.2H2.2V2.4H97.8 M99.4,0H1.9C0.8,0,0,0.9,0,2v27.4C0,29.7,0.2,30,0.6,30h98.9
	c0.3,0,0.6-0.3,0.6-0.6V0.6C100,0.3,99.8,0,99.4,0z M18,20.2c-1-0.5-1.7-1.2-2.3-2.1c-0.5-0.9-0.8-1.9-0.8-3.1
	c0-1.2,0.3-2.2,0.8-3.1C16.3,11,17,10.3,18,9.8c1-0.5,2-0.8,3.3-0.8c1.1,0,2,0.2,2.9,0.6c0.8,0.4,1.5,0.9,2.1,1.6l-2.1,1.9
	c-0.7-0.9-1.7-1.4-2.7-1.4c-0.6,0-1.2,0.1-1.7,0.4s-0.9,0.7-1.1,1.2c-0.3,0.5-0.4,1.1-0.4,1.7c0,0.6,0.1,1.2,0.4,1.7
	c0.3,0.5,0.6,0.9,1.1,1.2c0.5,0.3,1,0.4,1.7,0.4c1.1,0,2-0.5,2.7-1.4l2.1,1.9c-0.6,0.7-1.3,1.2-2.1,1.6c-0.8,0.4-1.8,0.6-2.9,0.6
	C20,21,18.9,20.7,18,20.2z M27.6,9.2h3.3v9h5.5v2.6h-8.8V9.2z M40.1,20.2c-1-0.5-1.7-1.2-2.3-2.1c-0.6-0.9-0.8-1.9-0.8-3.1
	s0.3-2.2,0.8-3.1c0.6-0.9,1.3-1.6,2.3-2.1C41,9.3,42.1,9,43.3,9c1.2,0,2.3,0.3,3.3,0.8c1,0.5,1.7,1.2,2.3,2.1
	c0.6,0.9,0.8,1.9,0.8,3.1s-0.3,2.2-0.8,3.1c-0.6,0.9-1.3,1.6-2.3,2.1c-1,0.5-2.1,0.8-3.3,0.8C42.1,21,41,20.7,40.1,20.2z M44.9,17.9
	c0.5-0.3,0.8-0.7,1.1-1.2c0.3-0.5,0.4-1.1,0.4-1.7c0-0.6-0.1-1.2-0.4-1.7c-0.3-0.5-0.6-0.9-1.1-1.2c-0.5-0.3-1-0.4-1.6-0.4
	c-0.6,0-1.1,0.1-1.6,0.4s-0.8,0.7-1.1,1.2c-0.3,0.5-0.4,1.1-0.4,1.7c0,0.6,0.1,1.2,0.4,1.7c0.3,0.5,0.6,0.9,1.1,1.2
	c0.5,0.3,1,0.4,1.6,0.4C43.9,18.3,44.5,18.2,44.9,17.9z M52.8,20.7c-0.9-0.2-1.6-0.5-2.1-0.9l1.1-2.4c0.5,0.3,1.1,0.6,1.8,0.8
	c0.7,0.2,1.4,0.3,2,0.3c1.3,0,1.9-0.3,1.9-0.9c0-0.3-0.2-0.6-0.5-0.7c-0.4-0.2-0.9-0.3-1.7-0.5c-0.9-0.2-1.6-0.4-2.2-0.6
	c-0.6-0.2-1.1-0.6-1.5-1c-0.4-0.5-0.6-1.1-0.6-1.9c0-0.7,0.2-1.3,0.6-1.9c0.4-0.6,1-1,1.7-1.3C53.9,9.2,54.9,9,56,9
	c0.8,0,1.5,0.1,2.2,0.3c0.7,0.2,1.4,0.4,1.9,0.7l-1,2.4C58,11.8,57,11.5,56,11.5c-0.6,0-1.1,0.1-1.4,0.3c-0.3,0.2-0.4,0.4-0.4,0.8
	c0,0.3,0.2,0.5,0.5,0.7c0.4,0.2,0.9,0.3,1.7,0.5c0.9,0.2,1.6,0.4,2.2,0.6c0.6,0.2,1.1,0.6,1.5,1c0.4,0.5,0.6,1.1,0.6,1.9
	c0,0.7-0.2,1.3-0.6,1.9c-0.4,0.6-1,1-1.7,1.3c-0.8,0.3-1.7,0.5-2.8,0.5C54.6,21,53.7,20.9,52.8,20.7z M71.4,18.2v2.5h-9.3V9.2h9v2.5
	h-5.8v1.9h5.1v2.4h-5.1v2.1H71.4z M73.2,9.2h5.5c1.3,0,2.4,0.2,3.4,0.7c1,0.5,1.7,1.1,2.3,2c0.5,0.9,0.8,1.9,0.8,3s-0.3,2.2-0.8,3
	c-0.5,0.9-1.3,1.5-2.3,2c-1,0.5-2.1,0.7-3.4,0.7h-5.5V9.2z M78.5,18.2c1,0,1.8-0.3,2.4-0.8c0.6-0.6,0.9-1.3,0.9-2.3
	c0-1-0.3-1.8-0.9-2.3c-0.6-0.6-1.4-0.8-2.4-0.8h-2.1v6.3H78.5z"/>
</svg>
