<svg id="레이어_1" data-name="레이어 1" xmlns="http://www.w3.org/2000/svg" viewBox="0 0 58 45"><defs><style>.cls-1,.cls-2{fill:#fff;}.cls-2{opacity:0.5;}</style></defs><title>logoTop</title><path class="cls-1" d="M24,26.76l-5.54-5.32-5-4.84a1.29,1.29,0,0,0-1.79,0l-5,4.84L1.08,26.76a1.3,1.3,0,0,0-.4.93v16A1.29,1.29,0,0,0,2,45H23.13a1.3,1.3,0,0,0,1.3-1.29v-16A1.3,1.3,0,0,0,24,26.76ZM11.49,38.59a.43.43,0,0,1-.43.43H7.53a.43.43,0,0,1-.43-.43V35.06a.44.44,0,0,1,.43-.43h3.53a.43.43,0,0,1,.43.43Zm0-6.51a.42.42,0,0,1-.43.42H7.53a.43.43,0,0,1-.43-.42V28.54a.43.43,0,0,1,.43-.42h3.53a.42.42,0,0,1,.43.42ZM18,38.59a.42.42,0,0,1-.42.43H14.05a.43.43,0,0,1-.43-.43V35.06a.43.43,0,0,1,.43-.43h3.53a.43.43,0,0,1,.42.43Zm0-6.51a.42.42,0,0,1-.42.42H14.05a.42.42,0,0,1-.43-.42V28.54a.42.42,0,0,1,.43-.42h3.53a.42.42,0,0,1,.42.42Z"/><path class="cls-1" d="M56.92,26.76l-5.54-5.32-5-4.84a1.29,1.29,0,0,0-1.79,0l-5,4.84L34,26.76a1.3,1.3,0,0,0-.4.93v16A1.3,1.3,0,0,0,34.87,45H56a1.29,1.29,0,0,0,1.29-1.29v-16A1.3,1.3,0,0,0,56.92,26.76ZM44.38,38.59A.43.43,0,0,1,44,39H40.42a.42.42,0,0,1-.42-.43V35.06a.43.43,0,0,1,.42-.43H44a.43.43,0,0,1,.43.43Zm0-6.51a.42.42,0,0,1-.43.42H40.42a.42.42,0,0,1-.42-.42V28.54a.42.42,0,0,1,.42-.42H44a.42.42,0,0,1,.43.42Zm6.52,6.51a.43.43,0,0,1-.43.43H46.94a.43.43,0,0,1-.43-.43V35.06a.43.43,0,0,1,.43-.43h3.53a.44.44,0,0,1,.43.43Zm0-6.51a.43.43,0,0,1-.43.42H46.94a.42.42,0,0,1-.43-.42V28.54a.42.42,0,0,1,.43-.42h3.53a.43.43,0,0,1,.43.42Z"/><rect class="cls-2" x="19.78" y="2.57" width="18.43" height="18.43" rx="3" transform="translate(16.83 -17.05) rotate(45)"/><path class="cls-1" d="M33.81,8.15h0a.65.65,0,0,0-.91,0L29.35,11.7V6.36a.64.64,0,0,0-.64-.64.64.64,0,0,0-.64.64V16.73l-5-5a.63.63,0,0,0-.9,0,.65.65,0,0,0,0,.91l5.89,5.9V44.32a.64.64,0,0,0,1.28,0V13.51l4.46-4.46A.63.63,0,0,0,33.81,8.15Z"/></svg>